<?xml version="1.0" encoding="utf-8"?>
<!-- Generator: Adobe Illustrator 19.2.0, SVG Export Plug-In . SVG Version: 6.00 Build 0)  -->
<svg version="1.1" id="Layer_1" xmlns="http://www.w3.org/2000/svg" xmlns:xlink="http://www.w3.org/1999/xlink" x="0px" y="0px"
	 viewBox="0 0 350 350" style="enable-background:new 0 0 350 350;" xml:space="preserve">
<style type="text/css">
	.st0{fill:#2B393D;}
	.st1{fill-rule:evenodd;clip-rule:evenodd;fill:#2B393D;}
	.st2{fill-rule:evenodd;clip-rule:evenodd;fill:#FAB134;}
	.st3{fill-rule:evenodd;clip-rule:evenodd;fill:#E53E98;}
	.st4{fill-rule:evenodd;clip-rule:evenodd;fill:#15B3A4;}
	.st5{fill-rule:evenodd;clip-rule:evenodd;fill:#9ED51A;}
</style>
<g>
	<g>
		<g>
			<path class="st0" d="M198.9,146.2c-3.9,12.6,3.1,26,15.7,30c12.6,3.9,26-3.1,30-15.7c3.9-12.6-3.1-26-15.7-30
				C216.2,126.5,202.8,133.5,198.9,146.2z"/>
		</g>
		<g>
			<g>
				<path class="st1" d="M201.1,163.9c-0.8-1.1-1.3-2.5-1.5-3.8c-0.3-1.3-0.4-2.7-0.6-3.9c0.4,1,0.5,2.2,0.8,3.5
					C200.1,161,200.4,162.5,201.1,163.9z"/>
			</g>
			<g>
				<path class="st1" d="M230.4,129.5c-0.1,0-0.1-0.4-0.2-0.4c-1-0.3-1.7-0.9-3.3-1.4c-1.1-0.4-2.1-0.4-2.6-0.8c0.1,0-0.5-1-0.6-1
					c-0.5-0.2-2-0.2-2.8-0.2c-1.4,0-2.9,0.4-4.3,0.8c-1.4,0.4-2.6,0.9-3.7,1c0.1,0,0.1-0.1,0.1-0.1c-1.2,0.5-2.8,0.5-4.1,1.2
					c-1.1,0.6-2.1,1.4-2.9,2.4c-0.9,0.9-1.7,2-2.7,2.9c-0.3,0.3-0.7,0.8-0.9,1.2c-0.6,1.1-1.5,2.2-2.1,3.3c-0.6,1.1-1,2.1-1,2.9
					c0.4-0.6,0.6-1.6,1.3-1.7c-0.3,0.6-1,1.7-1.5,2.7c-0.5,1-0.7,1.9-0.3,2c0.3,0.1,0.1-0.5,0.1-0.6c0.1-0.4,1.1-1.8,1.5-2.2
					c-1,1.7-0.3,2.6-0.3,4.1c0.2-0.3,0.3-0.9,0.5-1.5c0.2-0.6,0.4-1.2,0.8-1.5c0.1,0.6-0.4,0.9-0.4,1.5c0,0.2,0.4,0.4,0.4,0.5
					c0.2,0.7-0.7,1.6,0,2.5c0-0.9,0.2-1.9,0.6-2.9c0.4-1,1-1.9,1.8-2.5c-0.1,0.7-0.7,1.1-0.5,1.8c1-1.5,1.9-2.6,2.9-3.7
					c1-1.1,2.1-2.2,3.7-3.3c-1,1.1-2.1,2.2-3,3.4c-1,1.1-1.9,2.3-2.6,3.6c0.7-1,1.7-1.7,2.1-2.4c0.5-0.8,1.3-1.6,2.1-2.3
					c0.8-0.7,1.6-1.4,2.2-2c0.4-0.5,0.9-1.4,1.5-1.7c1.2-0.7,2.9-0.8,4.3-1c1.6-0.2,2.9-0.6,4.3-0.9c1.4-0.3,2.8-0.5,4.4-0.3
					c-0.4-0.6,0-0.8,0.5-0.8c0.5,0,1.2,0.1,1.4,0.2c1.1,0.2,2.2,0.9,3.1,1.6c1,0.7,1.9,1.5,3,2.1c1,0.5,2.2,0.8,3.3,1.5
					c1,0.7,1.6,2,2.6,2.8c1.7,1.4,3,3.3,3.9,5.3c0.9,2.1,1.3,4.4,1.4,6.7c0-1.6-0.1-3.2-0.5-4.9c-0.3-1.7-1-3.5-2-5.1
					c0.6,0.4,1,1,1.2,1.6c0.3,0.6,0.5,1.3,1,1.9c-0.1-0.1,0.2-0.2,0.3-0.1c0.5,0.4,0.6,1.6,0.6,2.1c0.2,1.5,0.3,3.1,0.3,4.9
					c0,1.7-0.2,3.5-0.5,5.1c-0.2,1.2-1,2.5-1,3.4c0,0.4,0.5,1,0.3,1.4c-0.4,1.1-1,2.1-1.8,3.1c-0.8,1-1.7,1.9-2.5,2.8
					c-1.5,1.7-3.1,3.5-5.2,4.7c-2.5,1.4-5.2,2.5-8,3.2c-2.8,0.6-5.6,0.8-8.3,0.3c0.2,0,0.9,0.2,0.7-0.1c-1.5-0.2-3.8-0.4-6-1.2
					c-2.3-0.7-4.6-2.1-6-3.6c-0.4,0.3,0.4,0.3,0.2,0.6c-0.5,0.2-1-1.2-0.6-0.8c-0.6-0.7-2.2-1.9-3.5-3.4c-1-1.1-1.9-2.6-2.6-4.3
					c-0.7-1.7-1.3-3.7-1.5-5.5c-0.2-1.2-0.3-2.6-0.3-3.9c0-1.3,0-2.6-0.1-3.6c-0.2-2-0.9-3.6-1.7-5c-0.5,0.8-0.8,1.4-1.2,2.6
					c-0.4,1.4-1.2,3.1-1.2,4.7c0,2.8,0.3,5.5,1,8.1c0.7,2.6,1.7,5.1,3.2,7.5c2.4,3.8,6.2,7.2,10.8,9.3c4.6,2.1,9.9,2.8,14.9,2
					c2.9-0.4,5.7-1.2,8.2-2.4c2.5-1.2,4.8-2.6,6.6-4.4c1.2-1.1,2.2-2.2,3.3-3.5c2-2.2,3.7-4.9,4.8-7.9c1.1-3,1.6-6.3,1.5-9.6
					c0-1.5,0.1-3.2-0.1-4.9c-0.2-1.6-0.6-3-1.4-3.7c-0.9-0.7-1.4-1.8-1.9-2.6c-0.1-0.2-0.7-0.8-1.1-1.3c-0.4-0.5-0.8-1-0.4-1.2
					c0.1-0.1,0.2,0.5,0.7,0.4c-1.3-2.6-3.6-4.7-6.1-6.2C235.6,131.1,232.9,130.2,230.4,129.5z M223.7,131.7c0.1-0.4,0.4,0.1,0.8,0
					C224.2,131.9,223.9,132,223.7,131.7z M235.1,134.9c1.2,0.3,2.3,1.2,3.3,2.1c0.9,1,1.7,2.1,2.5,3c-1-0.8-1.7-1.7-2.6-2.5
					C237.4,136.6,236.5,135.7,235.1,134.9z"/>
			</g>
			<g>
				<path class="st1" d="M213.6,175.1c-0.3,0.2-2-0.5-1.3-0.4C212.6,174.7,213,175,213.6,175.1z"/>
			</g>
		</g>
	</g>
	<g>
		<g>
			<path class="st1" d="M222.1,187c0.1,0.3-0.2,0.2-0.2,0.3C221.8,187,221.9,186.9,222.1,187z"/>
		</g>
		<g>
			<path class="st1" d="M218,189.8c-0.1-0.3,0.2-0.2,0.2-0.3C218.5,190.1,218,189.6,218,189.8z"/>
		</g>
		<g>
			<path class="st1" d="M216,191.3c0-0.7,0.8-0.2,0.7-0.5C216.8,191.1,216,191,216,191.3z"/>
		</g>
		<g>
			<path class="st1" d="M221.5,186.9c0.3,0.6-0.7,0.1-0.6,0.3C220.6,186.6,221.7,187.5,221.5,186.9z"/>
		</g>
		<g>
			<path class="st1" d="M234.7,174c0.6,0.1,0.9-0.8,1.8-0.3C236.1,173.9,235.6,174.4,234.7,174z"/>
		</g>
		<g>
			<path class="st1" d="M203.5,186.9c1.4-0.4,2.4-1.8,3.6-2.1C206.4,185.9,205.1,186.8,203.5,186.9z"/>
		</g>
		<g>
			<path class="st1" d="M232.5,165.9c0,0.3-0.3,0-0.4,0.3C231.9,165.8,232.3,165.9,232.5,165.9z"/>
		</g>
		<g>
			<path class="st1" d="M222.2,172.5c0.5-1.4,1.5-2.3,2.6-3.2C224.1,170.7,223,171,222.2,172.5z"/>
		</g>
		<g>
			<path class="st1" d="M221.4,185.5c0.1-0.1,0.8,0.5,0.4,0.3c0.6,0.2,0.6-0.6,0.9-0.5c0.4,0.2,0.3-0.5,0.4-0.6
				c0.4-0.4,1.4-1,2.1-1.5c0.4-0.3,1.1-0.4,1.7-0.4c0.6,0,0.9-0.7,1.3-1.1c0.6-0.6,1-1.7,1.6-2.3c1.4-1.4,3.1-3.4,5.1-4.1
				c-0.7-0.5-0.5,0.4-1.2-0.1c0.3-0.3,0.6-0.2,0.5-0.7c-0.8,0-1.3,1.1-2.1,1c0,0-0.3-0.3-0.3-0.2c0,0,0.2,0.5,0.1,0.4
				c0,0-0.3-0.3-0.2-0.3c-0.6,0-0.2,1.3-1.1,0.8c0.7-0.8,1.5-1.5,2.5-1.9c1.1-0.5,1.8-2.2,3.6-1.8c0.2,0,0.3-0.5-0.1-1
				c-0.4-0.5-0.2,0.2-0.7-0.5c0.3,0,0.8,0.1,0.1-1c-1.1,0.3-1.9,0.8-2.9,1.1c0.5-0.9,1.9-1.1,2.3-1.8c-0.3-0.4-0.3,0-0.7-0.5
				c0.1-0.1,0.6,0.1,0.1-0.6c-0.5-0.7-0.6,0.1-1.2-0.7c0.1,0,0.1-0.1-0.1-0.4c-1.1,0.2-1.4,1.5-2.4,1.7c-0.4,0.1-0.8-0.6-0.6,0.1
				c-0.5-0.7-0.5-0.1-0.6-0.1c-0.6,0.2-1.3,0.5-1.7,0.6c0.2-0.6,1.3-0.3,1.1-1.4c-0.4,0.1-0.7,0.1-1,0.2c0,0,0.1,0.1,0.1,0.1
				c-0.3,0.2-1.1,0.4-1.7,0.6c-0.7,0.2-1,1.1-1.5,1.6c-0.7,0.6-2,1.3-2.2,2c0.1,0,0.1-0.1,0-0.3c0.1,0.5-0.5,0.4-0.6,0.7
				c0,0,0.4,0.7,0,0.3c0-0.1-0.1-0.2-0.1-0.2c-0.4-0.1-0.1,0.5-0.3,0.6c0.1,0.1,0.1,0,0.3,0.3c-0.1,0-0.1,0.3-0.4,0.1
				c-0.2-0.4,0.3,0,0-0.5c-0.2,0.7-0.8,0.8-1.5,0.9c-2.4,0.6-4,3.4-5.9,4.3c-1.3,0.6-1.7,2.5-3.1,2.7c2.3-2.7,5-4.5,7.7-7.1
				c0.8-0.8,2.9-0.1,3.1-1.9c-1.5,1.5-4,1.6-5.4,3.1c-3.1,3.2-6.6,5.9-9.6,9.3c1.1-0.5,1.7-1.7,2.9-2.1c-0.1,1-1.7,1.1-2.2,2
				c-0.4,0.9-1.8,1.7-2.7,2.6c-1.2,1.2-3.6,1.7-5.2,2c-0.2,0-0.5-0.1-0.7,0.2c-0.2,0.5,1,0.9,1.3,1.4c0.2,0.4-0.4-0.3-0.1,0.2
				c0.2,0.2,0-0.2,0.3,0.1c0,0.5-0.8-0.2-0.6,0.1c-0.1-0.4,0.4,0.6,0.3,0.4c0.1,0.2,0.4,0.3,0.6,0.7c0.5,1-0.8-0.2,0,1.1
				c0.5,0.1,0.7-0.3,1.4,0.3c-0.3,0.1-0.3,0.9,0.6,1.3c0.5,0.2,1,0.3,1.3,0.3c1.7,0,3.2-1.2,4.5-1.6c0.2-0.1,0.3-0.3,0.5-0.1
				c0.2,0.2,0.3,0.7,0.2,0.3c0.9,0.1,1.2-1.1,1.9-0.9c0,0,0.1,0.2,0.1,0.2c0.2,0,0.4-0.3,0.6-0.4c0.9-0.8,2.2-1.9,3.3-2.5
				c0.1,0.2,0,0.1,0.1,0.2c0.1,0,0.4,0,0.1-0.4c0,0,0,0.3-0.2,0.1c0-0.7,1.2,0.4,0.9-0.7c-0.2,0.1-0.2,0.3-0.6,0.3
				c1.4-1.3,2.7-2.3,4.3-3.2c-0.2,0-0.2,0.2-0.1,0.4l-0.1,0.1c0.4-0.2,1-0.4,1.2-0.8c0,0.1-0.2,0.2-0.4,0.1c0.4-0.3,0.5-0.4,0.8-0.6
				C221.2,186.1,221.3,185.6,221.4,185.5z M226.9,181.4L226.9,181.4c-0.1,0.2-0.5,0.4-0.9,0.5C226.1,181.5,226.5,181.5,226.9,181.4z
				 M231.8,176.7c-0.2-0.6,0.5-0.5,0.7-0.8C232.7,176.6,231.8,176.4,231.8,176.7z M230.6,177.5c0.1-0.4,0.3-0.5,0.6-0.6
				C231.2,177.2,230.8,177.3,230.6,177.5z M232.7,171.3c0,0.6-0.8,0-0.2,0C232.6,171.3,232.7,171.4,232.7,171.3z M232.3,171.5
				c0,0.4-0.3,0.1-0.4,0.3C231.6,171.3,232.1,171.5,232.3,171.5z M207,188.7c-1.6,1.2-3.6,1.9-5.8,2.3
				C202.7,190.1,205.3,189.5,207,188.7z M225.2,172.4c-0.1-0.6,0.3-0.5,0.4-0.6C225.6,172.2,225.2,172.1,225.2,172.4z M225.8,171.8
				c-0.3-0.5,0.2-0.5,0.3-0.4C226.1,171.7,225.7,171.5,225.8,171.8z M226.2,171.2c0.3-0.6,0.8-1,1.2-1.3
				C227.3,170.4,226.7,170.8,226.2,171.2z M210.2,182.8c-0.4-1.1,0.4-0.8,0.6-1.1C211,182.5,210.4,182.3,210.2,182.8z M211,182
				c-0.4-0.6,0-1,0.4-0.3C211.2,181.6,211.1,181.8,211,182z"/>
		</g>
	</g>
	<g>
		<g>
			<path class="st0" d="M140.3,146.2c-3.9,12.6,3.1,26,15.7,30c12.6,3.9,26-3.1,30-15.7c3.9-12.6-3.1-26-15.7-30
				C157.7,126.5,144.2,133.5,140.3,146.2z"/>
		</g>
		<g>
			<g>
				<path class="st1" d="M142.6,163.9c-0.8-1.1-1.3-2.5-1.5-3.8c-0.3-1.3-0.4-2.7-0.6-3.9c0.4,1,0.5,2.2,0.8,3.5
					C141.5,161,141.9,162.5,142.6,163.9z"/>
			</g>
			<g>
				<path class="st1" d="M171.8,129.5c-0.1,0-0.1-0.4-0.2-0.4c-1-0.3-1.7-0.9-3.3-1.4c-1.1-0.4-2.1-0.4-2.6-0.8c0.1,0-0.5-1-0.6-1
					c-0.5-0.2-2-0.2-2.8-0.2c-1.4,0-2.9,0.3-4.3,0.8c-1.4,0.4-2.6,0.9-3.7,1c0.1,0,0.1-0.1,0.1-0.1c-1.2,0.5-2.8,0.5-4.1,1.2
					c-1.1,0.6-2.1,1.4-2.9,2.4c-0.9,0.9-1.7,2-2.7,2.9c-0.3,0.3-0.7,0.8-0.9,1.2c-0.6,1.1-1.5,2.2-2.1,3.3c-0.6,1.1-1,2.1-1,2.9
					c0.4-0.6,0.6-1.6,1.3-1.7c-0.3,0.6-1,1.7-1.5,2.7c-0.5,1-0.7,1.9-0.3,2c0.3,0.1,0.1-0.5,0.1-0.6c0.1-0.4,1.1-1.8,1.5-2.2
					c-1,1.7-0.3,2.6-0.3,4.1c0.2-0.3,0.3-0.9,0.5-1.5c0.2-0.6,0.4-1.2,0.8-1.5c0.1,0.6-0.4,0.9-0.4,1.5c0,0.2,0.4,0.4,0.4,0.5
					c0.2,0.8-0.7,1.6,0,2.5c0-0.9,0.2-1.9,0.6-2.9c0.4-1,1-1.9,1.8-2.5c-0.1,0.7-0.7,1.1-0.5,1.8c1-1.5,1.9-2.6,2.9-3.7
					c1-1.1,2.1-2.2,3.7-3.3c-1,1.1-2.1,2.2-3,3.4c-1,1.1-1.9,2.3-2.6,3.6c0.7-1,1.7-1.7,2.1-2.4c0.5-0.8,1.3-1.6,2.1-2.3
					c0.8-0.7,1.6-1.4,2.2-2c0.4-0.5,0.9-1.4,1.5-1.7c1.2-0.7,2.9-0.8,4.3-1c1.6-0.2,2.9-0.6,4.3-0.9c1.4-0.3,2.8-0.5,4.4-0.3
					c-0.4-0.6,0-0.8,0.5-0.8c0.5,0,1.2,0.1,1.4,0.2c1.1,0.2,2.2,0.9,3.1,1.6c1,0.7,1.9,1.5,3,2.1c1,0.5,2.2,0.8,3.3,1.5
					c1,0.7,1.6,2,2.6,2.8c1.7,1.4,3,3.2,3.9,5.3c0.9,2.1,1.3,4.4,1.4,6.7c0-1.6-0.1-3.2-0.5-4.9c-0.3-1.7-1-3.5-2.1-5.1
					c0.6,0.4,1,1,1.2,1.6c0.3,0.6,0.5,1.3,1,1.9c-0.1-0.1,0.2-0.2,0.3-0.1c0.5,0.4,0.6,1.6,0.6,2.1c0.2,1.5,0.3,3.1,0.3,4.9
					c0,1.7-0.2,3.5-0.5,5.1c-0.2,1.2-1,2.5-1,3.4c0,0.4,0.5,1,0.3,1.4c-0.4,1.1-1,2.1-1.8,3.1c-0.8,1-1.7,1.9-2.5,2.8
					c-1.5,1.7-3.1,3.5-5.2,4.7c-2.5,1.4-5.2,2.5-8,3.2c-2.8,0.6-5.6,0.8-8.3,0.3c0.2,0,0.9,0.2,0.7-0.1c-1.5-0.2-3.8-0.4-6-1.2
					c-2.3-0.7-4.6-2.1-6-3.6c-0.4,0.3,0.4,0.3,0.2,0.6c-0.5,0.2-1-1.2-0.6-0.8c-0.6-0.7-2.2-1.9-3.5-3.4c-1-1.1-1.9-2.6-2.6-4.3
					c-0.7-1.7-1.3-3.7-1.5-5.5c-0.2-1.2-0.3-2.6-0.3-3.9c0-1.3,0-2.6,0-3.6c-0.2-2-0.9-3.6-1.7-5c-0.5,0.8-0.8,1.4-1.2,2.6
					c-0.4,1.4-1.2,3.1-1.2,4.7c0,2.9,0.3,5.5,1,8.1c0.7,2.6,1.7,5.1,3.2,7.5c2.4,3.8,6.2,7.2,10.8,9.3c4.6,2.1,9.9,2.8,14.9,2
					c2.9-0.4,5.7-1.2,8.2-2.4c2.5-1.2,4.8-2.7,6.6-4.4c1.2-1.1,2.2-2.2,3.3-3.5c2-2.2,3.7-4.9,4.8-7.9c1.1-3,1.6-6.3,1.5-9.6
					c0-1.5,0.1-3.2-0.1-4.9c-0.2-1.6-0.6-3-1.4-3.7c-0.9-0.7-1.4-1.8-1.9-2.6c-0.1-0.2-0.7-0.8-1.1-1.3c-0.4-0.5-0.8-1-0.4-1.2
					c0.1-0.1,0.2,0.5,0.7,0.4c-1.3-2.6-3.6-4.7-6.1-6.2C177,131.1,174.3,130.2,171.8,129.5z M165.2,131.7c0.1-0.4,0.4,0.1,0.8,0
					C165.6,131.9,165.3,132,165.2,131.7z M176.5,134.9c1.2,0.3,2.3,1.2,3.3,2.1c0.9,1,1.7,2.1,2.5,3c-1-0.8-1.7-1.7-2.6-2.5
					C178.9,136.6,177.9,135.7,176.5,134.9z"/>
			</g>
			<g>
				<path class="st1" d="M155.1,175.1c-0.3,0.2-2-0.5-1.3-0.4C154,174.7,154.5,175,155.1,175.1z"/>
			</g>
		</g>
	</g>
	<g>
		<g>
			<path class="st1" d="M163.5,187c0.1,0.3-0.2,0.2-0.2,0.3C163.2,187,163.3,186.9,163.5,187z"/>
		</g>
		<g>
			<path class="st1" d="M159.4,189.8c-0.1-0.3,0.2-0.2,0.2-0.3C160,190.1,159.4,189.6,159.4,189.8z"/>
		</g>
		<g>
			<path class="st1" d="M157.5,191.3c0-0.7,0.8-0.2,0.7-0.5C158.3,191.1,157.5,191,157.5,191.3z"/>
		</g>
		<g>
			<path class="st1" d="M162.9,186.9c0.3,0.6-0.7,0.1-0.6,0.3C162,186.6,163.1,187.5,162.9,186.9z"/>
		</g>
		<g>
			<path class="st1" d="M176.2,174c0.6,0.1,0.9-0.8,1.8-0.3C177.5,173.9,177,174.4,176.2,174z"/>
		</g>
		<g>
			<path class="st1" d="M145,186.9c1.4-0.4,2.4-1.8,3.6-2.1C147.8,185.9,146.5,186.8,145,186.9z"/>
		</g>
		<g>
			<path class="st1" d="M173.9,165.9c0,0.3-0.3,0-0.4,0.3C173.3,165.8,173.7,165.9,173.9,165.9z"/>
		</g>
		<g>
			<path class="st1" d="M163.7,172.5c0.5-1.4,1.5-2.3,2.6-3.2C165.6,170.7,164.5,171,163.7,172.5z"/>
		</g>
		<g>
			<path class="st1" d="M162.8,185.5c0.1-0.1,0.8,0.5,0.4,0.3c0.6,0.2,0.6-0.6,0.9-0.5c0.4,0.2,0.3-0.5,0.4-0.6
				c0.4-0.4,1.4-1,2.1-1.5c0.4-0.3,1.1-0.4,1.7-0.4c0.6,0,0.9-0.7,1.3-1.1c0.6-0.6,1-1.7,1.6-2.3c1.4-1.4,3.1-3.4,5.1-4.1
				c-0.7-0.5-0.5,0.4-1.2-0.1c0.3-0.3,0.6-0.2,0.5-0.7c-0.8,0-1.3,1.1-2.1,1c0,0-0.3-0.3-0.3-0.2c0,0,0.2,0.5,0.1,0.4
				c0,0-0.3-0.3-0.2-0.3c-0.6,0-0.2,1.3-1.1,0.8c0.7-0.8,1.5-1.5,2.5-1.9c1.1-0.5,1.8-2.2,3.6-1.8c0.2,0,0.3-0.5-0.1-1
				c-0.4-0.5-0.2,0.2-0.7-0.5c0.3,0,0.8,0.1,0.1-1c-1.1,0.3-1.9,0.8-2.9,1.1c0.5-0.9,1.9-1.1,2.3-1.8c-0.3-0.4-0.3,0-0.7-0.5
				c0.1-0.1,0.6,0.1,0.1-0.6c-0.5-0.7-0.6,0.1-1.2-0.7c0.1,0,0.1-0.1-0.1-0.4c-1.1,0.2-1.4,1.5-2.4,1.7c-0.4,0.1-0.8-0.6-0.6,0.1
				c-0.5-0.7-0.5-0.1-0.6-0.1c-0.6,0.2-1.3,0.5-1.7,0.6c0.2-0.6,1.3-0.3,1.1-1.4c-0.4,0.1-0.7,0.1-1,0.2c0,0,0.1,0.1,0.1,0.1
				c-0.3,0.2-1.1,0.4-1.7,0.6c-0.7,0.2-1,1.1-1.5,1.6c-0.7,0.6-2,1.3-2.2,2c0.1,0,0.1-0.1,0-0.3c0.1,0.5-0.5,0.4-0.6,0.7
				c0,0,0.4,0.7,0,0.3c0-0.1-0.1-0.2-0.1-0.2c-0.4-0.1-0.1,0.5-0.3,0.6c0.1,0.1,0.1,0,0.3,0.3c-0.1,0-0.1,0.3-0.4,0.1
				c-0.2-0.4,0.3,0,0-0.5c-0.2,0.7-0.8,0.8-1.5,0.9c-2.4,0.6-4,3.4-5.9,4.3c-1.3,0.6-1.7,2.5-3.1,2.7c2.3-2.7,5-4.5,7.7-7.1
				c0.8-0.8,2.9-0.1,3.1-1.9c-1.5,1.5-4,1.6-5.4,3.1c-3.1,3.2-6.6,5.9-9.6,9.3c1.1-0.5,1.7-1.7,2.9-2.1c-0.1,1-1.7,1.1-2.2,2
				c-0.4,0.9-1.8,1.7-2.7,2.6c-1.2,1.2-3.6,1.7-5.2,2c-0.2,0-0.5-0.1-0.7,0.2c-0.2,0.5,1,0.9,1.3,1.4c0.2,0.4-0.4-0.3-0.1,0.2
				c0.2,0.2,0-0.2,0.3,0.1c0,0.5-0.8-0.2-0.6,0.1c-0.1-0.4,0.4,0.6,0.3,0.4c0.1,0.2,0.4,0.3,0.6,0.7c0.5,1-0.8-0.2,0,1.1
				c0.5,0.1,0.7-0.3,1.4,0.3c-0.3,0.1-0.3,0.9,0.6,1.3c0.5,0.2,1,0.3,1.3,0.3c1.7,0,3.2-1.2,4.5-1.6c0.2-0.1,0.3-0.3,0.5-0.1
				c0.2,0.2,0.3,0.7,0.2,0.3c0.9,0.1,1.2-1.1,1.9-0.9c0,0,0.1,0.2,0.1,0.2c0.2,0,0.4-0.3,0.6-0.4c0.9-0.8,2.2-1.9,3.3-2.5
				c0.1,0.2,0,0.1,0.1,0.2c0.1,0,0.4,0,0.1-0.4c0,0,0,0.3-0.2,0.1c0-0.7,1.2,0.4,0.9-0.7c-0.2,0.1-0.2,0.3-0.6,0.3
				c1.4-1.3,2.7-2.3,4.3-3.2c-0.2,0-0.2,0.2-0.1,0.4l-0.1,0.1c0.4-0.2,1-0.4,1.2-0.8c0,0.1-0.2,0.2-0.4,0.1c0.4-0.3,0.5-0.4,0.8-0.6
				C162.6,186.1,162.8,185.6,162.8,185.5z M168.3,181.4L168.3,181.4c-0.1,0.2-0.5,0.4-0.9,0.5C167.5,181.5,167.9,181.5,168.3,181.4z
				 M173.3,176.7c-0.2-0.6,0.5-0.5,0.7-0.8C174.1,176.6,173.3,176.4,173.3,176.7z M172.1,177.5c0.1-0.4,0.3-0.5,0.6-0.6
				C172.6,177.2,172.2,177.3,172.1,177.5z M174.2,171.3c0,0.6-0.7,0-0.2,0C174.1,171.3,174.1,171.4,174.2,171.3z M173.7,171.5
				c0,0.4-0.3,0.1-0.4,0.3C173.1,171.3,173.6,171.5,173.7,171.5z M148.5,188.7c-1.6,1.2-3.6,1.9-5.8,2.3
				C144.2,190.1,146.8,189.5,148.5,188.7z M166.7,172.4c-0.1-0.6,0.3-0.5,0.4-0.6C167.1,172.2,166.6,172.1,166.7,172.4z
				 M167.2,171.8c-0.2-0.5,0.2-0.5,0.3-0.4C167.5,171.7,167.2,171.5,167.2,171.8z M167.7,171.2c0.3-0.6,0.8-1,1.2-1.3
				C168.7,170.4,168.1,170.8,167.7,171.2z M151.6,182.8c-0.4-1.1,0.4-0.8,0.6-1.1C152.5,182.5,151.8,182.3,151.6,182.8z M152.5,182
				c-0.4-0.6,0-1,0.4-0.3C152.7,181.6,152.5,181.8,152.5,182z"/>
		</g>
	</g>
</g>
<g>
	<g>
		<path class="st2" d="M229.2,283.1c0.1,0.2,0.3,0.4,0.4,0.5c0,0,0.1,0.1,0.2,0.2l0.2,0.2l0.5,0.3c0.6,0.4,1.3,0.8,1.9,1.1
			c1.3,0.6,2.6,1.1,3.9,1.6c2.6,0.9,5.1,1.6,6.9,3c-0.3-0.2,0-0.9,0.4-0.8c1.2,2.4,4.9,2.5,7.2,2.6c-2.6,1.2,5.1,2,1.2,0.5
			c0.3-0.3,0.8-0.3,1.3,0c0.5,0.2,1,0.6,1.8,1.1c1.4,0.9,2.7,1.9,2.5,1.8c1.6,0.6,3.8,0.9,5.8,1.1c2,0.3,3.9,0.5,5.1,0.8
			c-0.1,0,2.5,1.3,6.4,2.9c1.9,0.8,4.2,1.7,6.4,2.6l0.8,0.3c0.2,0.1,0.5,0.1,0.7,0.1c0.5,0,1-0.1,1.5-0.3c1-0.4,2-1.1,2.6-2
			c-0.2,0.2,0.1-0.1,0.4-0.6c0.3-0.6,0.6-1.5,0.6-2.3c0-0.1,0-0.2,0-0.3l-0.1-0.4l-0.2-0.8l-0.3-1.3c-0.2-0.8-0.3-1.3-0.3-1.2
			c-0.2-1.1,0-2.4,0-3.5c0-1.1-0.1-1.8-1-1.6c-0.3-1.6,1.3,0.6,0.8-1.4c-0.3-1-1.1-1.3-1.3-2.5c-0.3-3.6-0.7-8.2-1.3-13.1l-0.3-1.9
			l0-0.2l0-0.1l0,0c0-0.2,0-0.1,0-0.1l0,0l0,0l0,0l-0.1-0.3l-0.1-0.6c-0.2-0.8-0.4-1.5-0.6-2.3c-0.2-0.8-0.5-1.6-0.7-2.4l-0.4-1.2
			l-0.2-0.6l-0.1-0.3c0-0.1-0.1-0.2,0-0.3l0.1-0.1c1.2-1.1,2.7-2.2,4.2-3.4l2.5-1.8l2.9-2.1l10.4-7.7c0-1.1,0.4-1.3,1.2-1.6
			c0.8-0.4,2.1-0.9,3.6-3c0.3-0.5,1.7-1.6,3.1-2.9c1.4-1.3,3-2.7,3.8-3.6c6.4-6.5,11.9-15.7,15.8-26.2c4-10.5,6.3-22.4,7.1-34.4
			c0.1-2,0.4-4.9,0.6-8c0.2-3.2,0.3-6.7,0.1-10c-0.3-6.6-1.5-12.5-3.1-13.3c-1.1-0.6,0-2-0.1-1.8c0.5-2-1.2-6.2-2.8-9.7
			c-1.7-3.5-3.3-6.2-2.2-6.1c-0.7-1.7-2.3,0.2-3-1.7c1-0.7,1.1-1.1,2.2-0.4c-1.8-2.1-2-2.8-3.6-3.8c0.9-1.9,2.2,2,3,2.1
			c-0.4-1.9-1-2.9-1.7-3.9c-0.7-1-1.4-2-1.9-3.8c-1.1-1-0.3,1.5-1.1,0.6c0.7,0-0.4-2.5-1.7-4.9c-1.3-2.4-2.8-4.7-2.6-4.5
			c-1.2-1-1.6-0.9-2-0.9c-0.4,0-0.7-0.2-1.8-2c0.2,0.3-0.1-1-0.8-1.9c-0.7-0.9-1.6-1.5-2.7,0.2c-0.2-1.5,0.8-1.2,2-1.5l-3.2-4.1
			c-0.9-1.2-1.8-2.4-3.2-3.9c-1.1,0.9,0.5,2.6,0.5,3c-1-0.9-1.4-2.8-2.1-4.2c-0.6-1.4-1.5-2.5-3.2-1.6c-0.6-2-1.1-2.2-1.1-3.3
			c-2.4-0.2-1.8-0.4-2.7-1.7c-1.2-1.7-4-3.5-6.7-4.9c-2.7-1.4-5.2-2.5-5.9-3.3c1,0.9,2.8,1.3,1.6,0c-1.5-0.1-4.3-1.7-6.6-2.8
			c-2.3-1.1-4.2-1.9-3.7-0.5c-2.5-1.3-5.5-3.6-7.4-3.3c0.6,0.3,1.3,0.6,0.9,1.1c-1.1-0.1-1.2-1.6-1.9-0.9c2.1,2.5,1.7,2.1,0.8,1.3
			c-0.8-0.8-2.1-1.9-1.5-0.9c-1.3-1.5-2-2-2.7-2.5c-0.6-0.5-1.2-1-2.2-2.3c0,1.8-1,1.2-2.3,0.2c-1.4-1-3.2-2.5-4.5-2.7
			c1.2,0.3,0.3,1,0.1,1c-1.2-1.5-1.8-2.1-5-1.2c0.2-1.3-0.7-2-1.9-2.2c-1.2-0.3-2.7-0.2-3.6-0.1c0.3,0,1.4,0.5,1.2,0.6
			c-0.9,0.3-3.2-0.8-5-1.5c-1.8-0.6-2.9-0.8-1.1,1.4c1,1.4,0.3,1-0.8,0.4c-1.1-0.6-2.4-1.6-2.4-1.6c-1.3-0.3-2.9,1.7-3.6,1.4
			c0,0-0.4-1.1-1.1-2c-0.7-0.9-1.6-1.5-2.5-0.5c-0.5,0.5,1.3,3.4-0.6,1.5c0.6-1.4-0.2-1.8-1.2-1.9c-1,0-2.2,0.3-2.5,0.4
			c-0.2,0-1.1,1.5-3-1c0.4,1.2,0.1,1.7-1.3,2.2c0-0.7,0.7-0.9,0.4-1.9c-0.3,1.2-1.1,0.9-2.2,0.5c-1.1-0.4-2.7-0.9-4.2,0
			c3.6-0.7,1.3,2.1-0.4,1c3.6-0.4,0.4-1.2-1.8-1.1c1.2,2,0.4,1.3-0.2,3.4c-0.7-3.9-6.1,0.1-2-3.6c-2.6-0.1-3,0.6-3.2,1.2
			c-0.2,0.6-0.1,1.2-1.7,1.2c1-0.6,1.9-2.4,1.3-3c-2.2,1.8-3.5-0.1-5.4-0.5c0.5,1.9,0.2,1.4,2.1,1.9c-0.4,1.1-1.6,0.3-2.9-0.3
			c-1.3-0.6-2.6-1-3.1,0.8c-0.3-0.5,0.5-0.9-0.2-0.9c-0.1,1-1.3,1.5-2.2,1.6c-0.9,0.1-1.6-0.3-0.8-1.2c-1.4,0.7-2.6,1.6-4.8,0.6
			c0,1,0.4,1.2,0,1.6c-1-1.2-2.6-0.3-4.2,0.9c-1.7,1.1-3.3,2.6-4.7,2.5c-0.3,0,0-1,0.1-1c-2.4,1-5.8,4.6-5.1,0.4
			c-1.9,0-1.5,2-1.2,2.6c-1.8,0.8-1.4-1.9-2.2-0.7c-0.3,0.9-3.2,3.2-3.9,2c0.4,0.7-0.5,1.1-0.6,1.7c0-2-3.9-1.4-7.2,0.1
			c-3.3,1.4-5.8,3.6-3.3,3.7c-1.2,0-2.7-0.1-4,0.2c-1.3,0.3-2.4,1.1-2.7,2.7c-3.3-0.9-1.2,1.4-2.6,2.5c0-1.1-0.5-1.2-2-0.3
			c-0.7,1.3,2.1-0.1,1.2,1.4c-2.1,0-2.6,0.5-2.8,1.3c-0.2,0.8-0.2,1.9-1.2,3c-0.2-0.9-0.7-1,0.2-1.8c-0.9,0.5-1.8,2.3-2.7,3.6
			c-0.9,1.4-1.8,2.3-2.7,1.2c-1.4,1.1,1,1.4-0.7,2.5c-1.3-0.7-1.9,0-2.2,1c-0.3,1-0.4,2.2-0.8,2.3c-0.4-0.3,0.5-2.1-0.7-0.6
			c-0.1,1.7,0.1,2.2,1.8,2.7c-1.7,2.2-2.8-0.1-3.5-0.6c-1.4,1.4,0,5-2.3,3.4c-2.1,1.7-1.6,2.4-1.9,4.7c-1.3,0.8,0.3-1.7-1-0.7
			c0.8,1.8-1.8,2.6-1.5,2.2c-2.3,3-2.7,5-2.5,6.7c0.2,1.7,0.9,3.2,1.1,5.3c0.2,2.3-1.3,5.1-1.2,7.5c0,0.9,1,1.6,1,2.3
			c0.1,1.3-0.5,2.4-1,3.5c-0.5,1.1-0.8,2.2-0.1,3.6c0.4-0.4,1.1-3.9,2.3-7.1c1.2-3.2,3-6.2,4.7-5.8c2,0.5,1.1,2.8,0,5.2
			c-1.1,2.4-2.5,5-1.9,5.7c0.9,1,1.7-1.1,2.7-3.8c1-2.8,2.2-6.1,3.1-7.7c0.6-1.2,2-3.9,3.6-6.7c1.6-2.8,3.4-5.6,4.5-7.2
			c0.6-0.8,1.8-2.7,3-4.4c1.2-1.7,2.3-3.1,2.3-3.1c0.2-1.5-1.2,0.8,0.5-0.6c2.9-2.3,5.3-4.9,7.4-7.2c2.1-2.3,3.9-4.3,5.5-5.3
			c0.5-0.4,3-1.4,5-2.4c1.9-1,3.4-2.1,1.7-2.8c2.4-0.1,4.8-1.8,7.3-3.4c2.4-1.6,4.8-3.1,6.6-3c-1-0.6,0.4-0.7,1.9-0.8
			c1.4-0.1,2.9-0.2,2.1-1.2c1.1,0.1,2.6,0.8,4,1c1.4,0.2,2.7-0.1,3.7-1.9c0.6-1.1,1.1,0.6,2.2,0.7c0.5,0,2-0.4,3.5-0.8
			c1.5-0.4,3.1-0.8,3.7-0.8c0.9,0,0.7,0.8,1.6,0.3c0.8-0.4,3.4-0.4,6.1-0.4c2.6,0,5.3,0.1,6.3-0.4c1.9-0.9-2.5-1.6,1.1-1.6
			c-0.8,0,0.9,1.5-0.3,1.3c2.1,0.4,5.7-0.7,8.2-0.6c3.4,0.2,6.7,0.3,10.3,0.6c3.5,0.3,7.2,0.9,11.1,2l4.6,2.3
			c2.4,1.2,4.9,2.4,5.8,2.4c1.3,0,0.5-1.2,1.5-0.7c1.9,0.9,1.6,3.5,4.4,2.6c-1.5,1.1,0.6,1.7,3.1,2.4c2.5,0.7,5.4,1.7,5.4,3.1
			c-0.2-1,0.6-0.6,1.4,0c0.8,0.6,1.6,1.5,1.4,1.3c3.3,1.8,6.8,4.2,10.4,7c3.5,2.8,7,6.1,10.3,9.7c3.3,3.6,6.4,7.6,9.1,11.8
			c2.7,4.1,5.2,8.4,7.2,12.7c-0.8,0.8-0.3,2,0.4,3.2c0.7,1.1,1.6,2,1.5,2c0.3,1,0.1,2.9-0.2,2.1c1.9,5.7,3.9,11.5,5.5,17.5
			c1.6,6,2.7,12.2,2.9,18.4c0.6,15.9-3.2,31.4-9.9,44.9c-6.8,13.5-16.6,24.8-27.9,33.2l-2.6,2L280,248c-0.7,0.5-1.5,1-2.2,1.5
			c-3,2-6.1,4-9.1,6c-0.1,0.3,0.1,0.7,0.1,1.1l0.3,1.2l0.5,2.3l1.1,4.5l1.1,4.4l0.5,2.2l0.3,0.8c0.7,2.2,1.5,4.5,2.2,6.9
			c0.6,2,1.2,4.3,1.9,6.8c0.1,0.3,0.2,0.6,0.2,0.9c0,0.3,0,0.6,0,1c-0.1,0.6-0.5,1.2-1,1.5c-0.5,0.3-1.1,0.5-1.7,0.4
			c-0.5-0.1-1.1-0.4-1.6-0.6c-4.3-1.7-9.2-3.7-13.7-5.7c0.2,0.1,0.3,0.1,0.2-0.1c-0.1-0.1-0.1-0.1-0.2-0.3c-0.1-0.1-0.3-0.3-0.5-0.4
			c-0.7-0.6-1.6-1.3-1.7-1.3c-3.3-1.5-7.3-3.4-11.7-5.3l-14.7-6.5l-3.5,0.3l-1.6,0.1l-1.3,0.1c-1.6,0.1-3.2,0.1-4.7,0.1
			c-3,0-5.7-0.2-7.9-0.3c-9.7-0.8-19.1-2.9-28.2-6.3c-9.1-3.4-17.7-8-25.7-14c-7.9-5.9-15.1-13.1-21.3-21.4
			c-6.1-8.3-11.2-17.8-14.7-28.1c-2-6-3.9-12.2-5.1-18.9c-1.3-6.6-2-13.7-1.7-21.1c0.1-2.8,0.4-5.8,0.8-8.9c0.4-3,0.9-6.1,1.3-8.9
			c0.8-5.6,1.1-10.2-1.2-12.1c-0.7,0.8-1,3.1-2,3.1c-0.9-1.4,0.8-2.9,0.9-4.8c-2.5,0.8-3.4,1.8-5.7,3.3c0.4-1,0.5-1.7,0-2
			c-3.1,2.9-5.4,7-6.9,11.9c-1.6,4.9-2.4,10.5-2.5,16.3c-0.2,5.9,0.3,11.9,1.1,17.9c0.8,6,2,11.9,3,17.6c1.7,9,4.5,17.8,8.4,25.9
			c3.9,8.1,8.7,15.7,14.2,22.4c5.5,6.8,11.7,12.7,18.3,17.8c6.6,5.1,13.5,9.4,20.5,12.9c1.9,1,4.6,2.1,7.5,3.3
			c2.9,1.1,6.2,2.2,9.3,3.1c6.3,1.8,12.1,2.7,13.9,3.1c3.7,0.7,8,1.2,12.2,1.6c4.2,0.3,8.3,0.5,11.7,0.7c1.6,0-1-1,0.5-0.9
			c0.2,0.8,1.6,0.7,2.8,0.5c1.2-0.2,2.2-0.4,1.8,0.1c0.2-0.1,0.5-0.2,0.7-0.3c0.1,0,0.2-0.1,0.2-0.1c0.1,0,0.1-0.1,0.2-0.1
			c0.3-0.1,0.6-0.1,0.8-0.1c0.4,0,0.8,0.2,1.1,0.4C228.1,283.9,228.4,284.2,229.2,283.1z M142.5,84.1c0.4,0.3,1.1-0.1,1.9,0.7
			c0.5-0.8-1-1.2,0.4-2.1c0.7,0.7-0.4,3.4,1.1,1.1c0.1,1.4-1,1.6-2.2,1.8c-1.1,0.3-2.2,0.6-1.9,2.1c-1.3,0-0.9-0.6-0.3-1.4
			C142.2,85.7,143,84.7,142.5,84.1z"/>
	</g>
	<g>
		<path class="st2" d="M310.1,127.8c-0.5,0.9-1-0.1-1.2-1.3c-0.2-1.2-0.2-2.5,0.4-2.1c1.1,0.7,1.9,3.2,2.3,5.5
			c0.4,2.3,0.5,4.5,0.6,4.7c0.8,2.1,2.2,4.3,3.3,6.6c1.1,2.3,1.9,4.8,1.7,7.3c-0.1,0.5,0.6,3.1,1.1,6.1c0.5,3,0.9,6.4,0.7,8.3
			c-0.9-1.6-1.5-4-2.1-6.7c-0.6-2.7-1.1-5.8-1.8-8.8c-0.6-3-1.4-5.9-2.1-8.4c-0.8-2.4-1.6-4.4-2.3-5.4c0.6,0,0.1-0.9-0.3-2.1
			C310,130.3,309.5,128.9,310.1,127.8z"/>
	</g>
</g>
<g>
	<g>
		<path class="st3" d="M220.8,56.1c-2.8,0.1-6.2,0.3-9.5,0.6c-3.4,0.3-6.8,0.8-9.7,1.2c1.7-0.9,5.2-1.9,9-2.3
			C214.4,55.2,218.4,55.4,220.8,56.1z"/>
	</g>
	<g>
		<path class="st3" d="M164.3,74.8c1-1.3,4.8-3.1,7.7-4.6C170.2,72,166.8,73.5,164.3,74.8z"/>
	</g>
	<g>
		<path class="st3" d="M133.1,98.5c-4.2,4.9-6,9.5-7,13c-0.8,2.7-2.3,5.7-3.9,9c-1.6,3.2-3.3,6.6-4.6,9.7c-1.8,4.4-3.4,9.7-4.6,15.2
			c-1.2,5.6-2,11.4-2.5,17.2c-0.4,4-0.3,8.3,0,12.6c0.3,4.3,1,8.6,1.7,12.5c1.2,6.7,2.9,13.6,5.4,19.7c2.5,6.1,5.6,11.2,8.9,14.4
			c0.7,0.6,1.9,0.7,2.3,1.5c0.1,0.3-1.1,0.3-0.4,1.2c1.3,1.5,2.4,2.4,3.4,3.3c1.1,0.9,2.1,1.8,3.5,3.5c2.5,3,5.9,6.8,9.6,10.2
			c3.7,3.5,7.7,6.7,11,9.2c2.4,1.8,5,4.1,7.5,5.7c2.5,1.6,5,2.6,7.1,1.9c-1.7-1.4-4.5-2.5-6.9-4.1c-2.5-1.5-4.7-3.4-5.5-5.7
			c3.6,2.6,8.1,6.2,12.9,9c4.8,2.8,9.8,4.9,13.5,5c-3.6-1.4-7.6-2.9-11.5-4.9c-3.9-2-7.6-4.5-10.4-7.4c12,7.5,25.5,12.8,39.8,15.1
			c7.1,1.2,14.4,1.6,21.7,1.3c3.6-0.2,7.3-0.6,10.9-1.1c1.8-0.3,3.6-0.6,5.4-1l0.7-0.1l0.7-0.2c0.6-0.1,1.1-0.3,1.7-0.4
			c1.1-0.3,2.3-0.6,3.4-0.9l29,12.2l13.3,5.6c3.8,1.6,7.7,3.3,11.6,5.1c2,0.9,4,1.8,6,2.7l3.1,1.4c1.1,0.5,2.4,0.1,3.1-0.6
			c0.4-0.4,0.6-0.8,0.7-1.3c0-0.2,0.1-0.5,0-0.7c0-0.1,0-0.2-0.1-0.3l-0.2-0.3l-1.4-2.3c-0.9-1.6-1.8-3.1-2.7-4.7
			c-1.2-2-3.2-4.6-5.1-6.9c-1.9-2.4-3.6-4.5-4.9-6.8c-0.8-1.5-1.7-3.1-2.6-4.7l-3.4-5.7l-3.7-6.1l-1.8-2.9l-0.9-1.4l-0.4-0.7
			l-0.2-0.4c-0.1-0.1,0-0.1,0.1-0.2l0.1-0.1c3.3-2.7,6.3-5.4,8.9-8.1c2.6-2.6,5-5.4,7.2-8.4c4.5-5.8,8.2-12.2,11.2-19
			c1.3-2.9,2.4-6.3,3.3-9.4c0.9-3.1,1.5-6,2.2-7.9c1.4-4.2,2-9.1,2.2-13.9c0.2-4.8,0.1-9.5,0.1-13.7c0.1-2.9,0-6.2-0.2-9.6
			c-0.2-3.4-0.6-6.7-1.2-9.6c-1.6-8.2-4.9-16.7-8.7-25.2c-2.6-5.7-5.9-11.2-9.7-16.2c-3.8-5-8.1-9.6-12.7-13.8
			c-4.6-4.1-9.5-7.8-14.4-11c-5-3.3-10-6.1-14.9-8.7c-1.5-0.8-3.8-2.1-6.1-3.2c-2.3-1.1-4.7-1.9-6.4-2c-1.3-0.1-3.3,1-4.5,2.4
			c-1.2,1.3-1.6,2.9,0.3,3.7c-1.8-1-3-0.8-4.2-0.5c-1.2,0.3-2.3,0.6-4.1-0.3c2.5,3.2,6.4,5.8,10.8,8.3c4.5,2.5,9.6,5.1,14.6,7.9
			c5,2.8,10,5.8,14.2,9c4.3,3.1,7.8,6.3,10.1,9c3.1,3.6,6.1,7.3,9,11.2c2.9,3.9,5.6,8.1,8,12.4c4.8,8.7,8.1,18.1,8.9,27.1
			c0.1,1.5,0.1,3.1,0.1,4.7c0.1,5.8-0.1,11.2-0.7,16.7c-0.6,5.5-1.5,11.1-3,17.1c-2.1,8.1-5.6,16-10.2,23.1c-2.3,3.6-4.9,7-7.7,10.1
			L288,227l-1.1,1.2c-1.5,1.6-3,3.1-4.6,4.6c-3.3,3-6.8,6.1-10.3,9.1c0.1,0.2,0.2,0.3,0.3,0.5l0.4,0.5l0.7,1.1l1.4,2.1l2.9,4.3
			l5.8,8.7l0.7,1.1l0.5,0.7l0.8,1.2l1.5,2.4l0.8,1.2l0.4,0.6l0.2,0.3l0,0.1l0,0l0,0l0,0l0.1,0.3c0.2,0.8,0.2,1.2,0.3,1.5
			c0,0.1,0.3,0.3,0.5,0.5c0.2,0.2,0.4,0.3,0,0.1c-0.4-0.2-0.4-0.2-0.3-0.1c0.1,0.1,0.3,0.3,0.2,0.3c-0.1,0-0.2,0.1-0.4,0
			c-0.1,0-0.2-0.1-0.3-0.2c-0.2-0.1-0.3-0.2-0.5-0.2c-0.3-0.1-0.6-0.1-1.1-0.2l-0.4-0.1l-4.8-2l-9.9-4l-10-4.2l-5-2.1l-9.1-3.9
			l-0.8,0.2c-2,0.5-4.1,1.1-6.1,1.6l-1.4,0.3l-0.7,0.1c-0.5,0.1-1,0.2-1.5,0.2c-2,0.3-4,0.5-6,0.7c-4,0.3-8,0.3-11.9,0.3
			c-7.1,0-14.5-0.4-21.9-1.7c-7.3-1.4-14.7-3.8-21.3-7.5c-5.5-3.1-10.6-7-15.3-11.3c-4.6-4.3-8.8-8.9-12.7-13.4
			c-2-2.3-4.1-4.4-6.2-6.6c-2.1-2.3-4.2-4.7-6.1-7.4c-2.5-3.7-4.6-7.9-6.2-12.3c-1.6-4.4-2.8-9.1-3.5-13.6c-1.2-7.1-1-14.5-0.1-21.8
			c1-7.4,2.7-14.7,4.8-22.1c1.5-5.2,3-10,4.8-14.6c1.8-4.6,3.9-9,6.7-13.3c3-4.6,7.1-9.1,11-13.1c3.9-4.1,7.7-7.7,9.7-11.2
			c-2.7,1.7-5.5,4.4-8.3,7.2c-2.8,2.8-5.5,5.8-8.3,8.1c5.3-6.6,10.9-11.8,17.1-16.6c6.2-4.7,12.8-9,21.1-13.1
			c-3.2,1.1-3,1.9-5.9,2.5c6.1-4.7,14.2-8.4,23.1-10.5c8.9-2.1,18.5-2.4,27.5-1.1c-1.7-0.7-2.4-1.2-2.4-1.7c0-0.4,0.7-0.8,1.7-0.9
			c2.1-0.4,5.6,0,7.5,1.1c-4.7-2.3-10.1-3.5-15.7-3.7c-5.6-0.3-11.4,0.4-17.1,1.8c-5.7,1.3-11.3,3.4-16.7,5.7
			c-5.4,2.3-10.5,4.9-15.4,7.5c-7.4,3.8-14.4,9-20.6,15.1c-6.2,6.1-11.7,13.2-16.3,21c-4.6,7.8-8.3,16.1-11.1,24.9
			c-2.8,8.7-4.8,17.8-6,27.1c0.6-7.9,1.9-15.8,4.1-23.7c2.2-7.9,5.2-15.7,9.1-23.1c3.9-7.5,8.7-14.6,14.3-21.2
			c5.6-6.6,12.1-12.5,19.2-17.6c-10.2,7.1-19.5,16-27,26.4c-7.6,10.4-13.4,22.2-17.1,34.5c-3.6,12.4-5.1,25.2-4.5,37.8
			c0.6,12.5,3.3,24.7,7.5,35.9c-3.3-6.1-5.7-12.8-7.1-19.8c-1.5-6.9-2-14.1-1.8-21.2c0.2-7.1,1.2-14.2,2.7-21.1
			c1.5-6.9,3.6-13.6,6-20.2c1.3-3.4,2.4-6.7,3.6-10.1c1.3-3.3,2.7-6.6,4.5-9.7c2.7-4.6,6.6-10,11.2-15.2c4.6-5.2,10-10.1,15.2-14.2
			c2.7-2.1,7.3-4.8,11.8-7.2c4.6-2.4,9.1-4.5,11.3-6.5c-2.3,2.1-1.2-1.7,0.6-1.9c-5,1.9-9,4-13,6.2c-4,2.3-7.9,4.7-12.6,7.6
			c-0.1-0.9,2.7-1.7,2.5-2.5c-2.7,2.1-5,3.1-5.7,4.9c0.9-0.5,2.3-2.2,3-1.9c-2.6,2.4-3.1,2.5-3.6,2.6c-0.5,0.1-1,0-3.4,2.1
			c0.4,1.4,2-1.7,2.6-1c-1.5,1.6-2.9,2.2-3.6,2.4c-0.8,0.3-0.9,0.3,0.1,0.9c-3,0.8-4.9,3.2-6.5,5.6c-1.6,2.4-3,4.9-5.1,6.2
			c0.9-1.1,3.9-4,2.4-3.7c-0.2,0.6-2.3,3.2-3.9,5.2C132.5,99,131.5,100.4,133.1,98.5z M144.1,235.9c1.6,0.5,4,3.2,6.7,5.8
			c2.6,2.7,5.4,5.4,7.1,6.4c-3-1.2-5.3-3.3-7.4-5.5C148.3,240.4,146.4,238,144.1,235.9z M145.9,102c-0.6,1.5-1.8,3.4-3.2,5.3
			c-1.3,1.9-2.7,3.8-3.6,5.1c0.7-1.9,1.9-3.5,3.1-5.2C143.4,105.5,144.8,103.9,145.9,102z"/>
	</g>
</g>
<g>
	<g>
		<path class="st4" d="M42.9,196.7c-1.3-1-1.3-1.8-2.3-4.2C42.1,193.2,41.8,195.1,42.9,196.7z"/>
	</g>
	<g>
		<path class="st4" d="M47.7,206.4c-0.8-0.5-1.7-2.1-2.5-3.9c-0.8-1.8-1.7-3.9-2.6-5.2c1.1,0.6,2.1,2.4,2.9,4.3
			C46.4,203.4,47.1,205.4,47.7,206.4z"/>
	</g>
	<g>
		<path class="st4" d="M33.8,143.1c0.3,0.9,0.3,2.5-0.2,2.9c-0.4,0.3-0.5-1-0.4-2C33.2,142.9,33.4,142.1,33.8,143.1z"/>
	</g>
	<g>
		<path class="st4" d="M157.9,40.7c1.9-1,4.6,0.1,8.2,0.6C164.3,41.8,160.7,40.4,157.9,40.7z"/>
	</g>
	<g>
		<path class="st4" d="M30.1,156.2c-1-1-0.2-3.8-1.9-3c0.5-1.3,1-1.5,1.4-0.9C30,153,30.2,154.3,30.1,156.2z"/>
	</g>
	<g>
		<path class="st4" d="M56.1,227c-2.2-1.9-2.3-3.2-1.9-3.3C54.7,223.6,55.7,224.6,56.1,227z"/>
	</g>
	<g>
		<path class="st4" d="M49.8,217.6c1.7,2.8,2,3.1,3.4,5.4C51.5,221.6,49.8,219.4,49.8,217.6z"/>
	</g>
	<g>
		<path class="st4" d="M65.3,236.4c0.9,0.1,1.6,1.2,1.6,1.1C67.4,239.3,63.6,236.1,65.3,236.4z"/>
	</g>
	<g>
		<path class="st4" d="M76,290.6c-0.2-0.3-0.3-0.6-0.5-0.1c-0.4-0.7,0.6-2.8,0.7-4.1C77.2,288.4,75.6,287.8,76,290.6z"/>
	</g>
	<g>
		<path class="st4" d="M257.7,197c0.8,1.3-0.4,3.1-1.4,4.2C255.8,200.2,257,198.9,257.7,197z"/>
	</g>
	<g>
		<path class="st4" d="M235.2,235c-3.1,4.5-7.4,8-10.7,11.6c0.8-1.4,2.6-3.5,4.7-5.7C231.2,238.8,233.4,236.6,235.2,235z"/>
	</g>
	<g>
		<path class="st4" d="M255.7,201.8c1.8-0.6-0.7,2.6-0.8,3.6c-0.8-0.5-0.3-1.3,0.2-1.9C255.6,202.9,256.3,202.2,255.7,201.8z"/>
	</g>
	<g>
		<path class="st4" d="M236,234.5c0.6-1.2,2-3,3.2-4.4c1.2-1.4,2.3-2.5,2.5-2.5C239.6,230.1,237.5,233.2,236,234.5z"/>
	</g>
	<g>
		<path class="st4" d="M20.4,145.6c-1.1-0.9-0.8-4.5-0.3-5.7C19.5,141.4,21.3,142.7,20.4,145.6z"/>
	</g>
	<g>
		<path class="st4" d="M258.1,203.4c-0.8-1.6-0.1-3.1,0.5-3.5C259.2,199.5,259.6,200.3,258.1,203.4z"/>
	</g>
	<g>
		<path class="st4" d="M244.6,225.3c0.9-2.8,2.1-0.1,0.4,1.3C245.1,226.5,244.8,224.8,244.6,225.3z"/>
	</g>
	<g>
		<path class="st4" d="M32.5,96.1c-0.8-0.9,0.6-3.6,1.6-4.7C35,92.5,32.9,95.6,32.5,96.1z"/>
	</g>
	<g>
		<path class="st4" d="M258.5,204.4c-0.2,2.6-2,5.2-3.4,8c0.1-1.2,0.9-2.9,1.6-4.4C257.4,206.5,258.2,205.1,258.5,204.4z"/>
	</g>
	<g>
		<path class="st4" d="M157.2,278.7c-2.8,0.1-4.4,0.8-7,0.8c0-0.3,1.6-0.6,3.2-0.9C155,278.5,156.7,278.3,157.2,278.7z"/>
	</g>
	<g>
		<path class="st4" d="M277.4,152.7c1,3.7,0.9,8.1,0.4,12.4c-0.5,4.3-1.4,8.5-1.9,12.2c0.1-3.9,0.6-7.9,1.1-12.1
			C277.4,161.1,277.8,156.8,277.4,152.7z"/>
	</g>
	<g>
		<path class="st4" d="M141.1,292.1c-1.4,0.5-3.5,0.7-5.9,0.7c-0.6,0-1.2,0-1.9,0l-1.8-0.1c-0.2,0-0.2,0-0.2,0l-0.2,0
			c-0.1,0.1-0.2,0.1-0.2,0.2l-0.1,0l-0.7,0.3l-1.5,0.7c-1.9,0.9-3.7,1.8-5.1,2.7c1.5-1.1,3.2-2.2,5.1-3.1c0.5-0.2,0.9-0.5,1.4-0.7
			l0.4-0.2l0.2-0.1l0.1,0c0,0,0,0,0,0l0.1-0.1c0.1-0.1,0.2-0.2,0.3-0.3c0.1,0,0.2,0,0.4,0h0.1l0,0l0,0l0.1,0l0.9,0
			c0.6,0,1.2,0,1.8,0.1C136.7,292.4,139,292.4,141.1,292.1z"/>
	</g>
	<g>
		<path class="st4" d="M49.5,210c1.5,0.8,1.4,1.9,2.5,4c-0.1,0.2-0.3,0-0.4-0.2l-0.4,0.3C51.8,212.7,49.9,211.7,49.5,210z"/>
	</g>
	<g>
		<path class="st4" d="M33.4,152.2c-0.6-0.2,0.1-2.2-0.5-2.5c-0.8,0.3,0.1,1.2,0,1.8c-0.3,3.2-0.5,2-0.6-0.1
			c-0.1-2.1,0.1-5.1,0.3-5.3c0.3-0.4,0.7,0.5,0.9,1.8C33.7,149.1,33.8,150.8,33.4,152.2z"/>
	</g>
	<g>
		<path class="st4" d="M46.4,96.6c-0.6-0.3,0.7-2.8,2.6-5.4c1.8-2.6,4.1-5.4,5.2-6.7c2-2.6,4.8-6.3,8.1-9.9
			c3.3-3.6,7.2-7.2,10.9-9.7c5.8-3.8,11.9-8.2,17.6-11.9c5.8-3.6,11.2-6.4,15.1-7.5c0.8-0.2,4.4-1.7,7.8-2.9
			c3.4-1.2,6.7-2.2,6.7-2.2c7.8-2.5,15.7-3.2,23.1-2.9c-4.1,0.1-6.9,0.5-9.3,0.8c-2.5,0.4-4.7,0.8-7.8,1.5
			c11.5-1.7,23.2-1.9,34.9-0.4c11.6,1.5,23.2,4.7,34.2,9.5c11,4.9,21.4,11.4,30.6,19.6c9.2,8.1,17.3,17.8,23.6,28.7
			c-0.6-1.5-2.3-3.5-2.2-4.6c4.8,8.3,8.9,16.7,11.9,25.5c3.1,8.8,5.1,17.9,5.6,27.4c-0.2-1.2,0.1-3.4-0.6-3.9
			c-0.8,0.2,0.5,5.8-0.6,2c0.7,2.4,0.1,3,1.8,3.1c-0.8,0.1-1,1.7-1,3.5c0,1.8,0.2,4,0.6,5.2c0.6-1.7-0.6-3.7,0.2-6
			c0,0.8,0.3,2.8,0.4,4.5c0.1,1.7-0.1,2.9-0.9,1.9c-0.6,1.1,0.4,4.1-0.2,5.2c0.9,0.7,0.2-1.3,0.9-1.1c0.2,0.9,0.6,1.4,0.3,2.8
			c-0.7,0.1-0.1-1.6-0.9-1.3c-0.3,6.3-0.7,10.6-1.2,14.2c-0.5,3.7-1.1,6.8-2.2,10.7c-0.3-0.8,0.9-0.7,1.4-2.1
			c-1.1,3.4-1.8,6.4-2.4,8.9c-0.6,2.5-1.1,4.5-1.8,6c1.6-1.7,2.5-4.5,3.3-7.6c0.8-3,1.4-6.3,2.7-9.3c0,1.6-0.8,2.2-0.2,2.9
			c0.5-3.9,1.7-10,2.3-16.6c0.7-6.6,0.8-13.7,0.4-19.5c-0.3-3.5-0.6-7.3-1.1-11.1c-0.5-3.8-1.1-7.7-1.9-11.4
			c-1.6-7.3-3.9-13.7-6.1-17c-0.8-1.2-1.5-3-2.3-5.1c-0.8-2.1-1.6-4.4-2.5-6.4c-1.5-3.3-3.5-6.9-5.9-10.4c-2.4-3.5-5.1-7-7.9-10.3
			c-2.8-3.2-5.8-6.2-8.5-8.9c-2.7-2.6-5.3-4.9-7.3-6.8c-2.5-2.4-6.7-5.4-11.4-8.3c-4.7-3-10.1-6-15.1-9c6.5,2.8,12.6,6.7,17.3,9.8
			c0.9,0.5,4.5,3.2,4.1,1.1c-1.3,0.1-2.5-0.9-2.9-1.5c-0.4-0.7,0.1-1.1,2.2,0.4c-0.6,0-0.7,0.2-0.1,0.9c2.5,0.4,6.2,2.8,8.7,4.8
			c6.7,5.4,13.2,12,18.5,19.1c5.3,7.1,9.5,14.6,12.1,21.4c-2.6-5.5-5.4-10.1-8.1-14.1c-2.7-4-5.5-7.4-8.4-10.7
			c-2.9-3.2-5.9-6.3-9.4-9.4c-3.5-3.1-7.3-6.3-12-9.7c7.5,6.2,14.6,13.4,21.4,20.7c6.1,6.6,11.2,14.5,15.3,22.9
			c4,8.4,7,17.1,9.5,25.6c1.2,4,1.4,8.7,2.1,12.5c1,5.1,1.5,10,1.6,14.9c0.1,4.9-0.2,9.7-0.8,14.6c-0.2,1.3-0.1,2.9-0.1,4.4
			c0,1.6-0.2,3.1-0.7,4.2c-0.7,1.5-0.1-0.5-0.1,1.7c0,1.6-0.5,3.7-1.1,5.7c-0.7,2-1.5,3.9-1.8,5l0.2-0.8c0.1-0.2-0.1-0.5-0.2-0.1
			c0.1,1.6,0.2,3.2,1.1,3.4c-1.4,0.3-2.3,2.2-3,4.3c-0.7,2.1-1.3,4.5-2.1,5.8c0-1.1,0.3-2.4,0.3-3.5c-1.3,2.4-1.4,3.7-1.4,4.7
			c0.1,1,0.3,1.8-0.3,3.2c-0.9,2.4-2.2,5.2-3.7,8.2c-1.5,3-3.3,6.2-5.3,9.4c-2,3.1-4.1,6.2-6.3,8.9c-2.1,2.8-4.3,5.2-6.2,7.2
			c3.1-3.9,6.4-8.3,9.5-12.7c3.1-4.5,5.8-9.1,7.9-13.3c-2.3,3.3-3.8,5.4-5.3,7.6c-1.6,2.2-3.2,4.6-6.1,8.1c1.1,0.5,1.3-2,2.6-2.2
			c-3.5,3.7-7.3,8.8-11.6,13.6c-4.3,4.8-9,9.4-13.4,12.3c-0.7-0.7,2-1.7,1.8-2.4c-3.3,2.2-5.5,3.8-7.9,5.6c-2.5,1.8-5.3,3.7-10.1,6
			c2.8-2,5.6-3.8,8.5-6.1c2.9-2.2,6-4.7,9.1-7.9c-2.8,2-6.3,4.8-10.6,7.8c-4.2,3-9.1,6.2-14.3,9.1c-5.2,2.9-10.7,5.5-16,7.6
			c-5.3,2.1-10.4,3.7-14.6,4.8c-1.1,0.3-2.6,0.2-4.1,0.2c-1.5,0-3.1,0.2-4.5,1.1c0.4-0.5,3.6-0.9,4.1-0.6c-5.6,1.3-11.3,2.1-17,2.6
			c-2.9,0.2-5.7,0.4-8.5,0.4c-1.4,0-2.8,0-4.2,0l-1.7,0l-1.6,0c-0.7,0.3-1.4,0.7-2.1,1l-1.1,0.5l-1.3,0.6l-5.1,2.5l-9.6,4.8
			c-9,4.5-18.8,12-32.9,15.3c-0.2,1,1.3-0.3,1.2,0.7c-1.5,0.8-4.7,1.4-4.8,2.5c3.1-0.8,4.9-2.7,8.4-3.4c-2.2,1.1-5.1,2.3-4.5,3.2
			c0.7-1,1.9-0.8,3.5-1.2c-1.6,0.7-3,1.4-4.2,2.1c-0.6,0.4-1.2,0.8-1.8,1.1l-0.8,0.6c-1,0.5-2.1,0.9-3.2,1.2c1-0.2,2-0.4,2.8-0.8
			l1-0.4c0.4-0.2,0.8-0.3,1.1-0.4c0.6-0.2,1.1-0.3,1.4-0.2c0.6,0,0.6,0.4,0.1,1c-0.2,0.3-0.6,0.6-1,0.9c-0.2,0.2-0.5,0.3-0.7,0.5
			l-0.4,0.3l-0.1,0.1l-0.1,0c0,0,0,0,0,0l-0.1,0.1c-0.3,0.1-0.6,0.3-1,0.4c-2.6,1-5.7,1.3-8.8,0.7c-1.5-0.3-3-0.8-4.4-1.5
			c-0.3-0.2-0.7-0.4-1-0.6l-0.5-0.3l-0.2-0.2L59,312c-0.2-0.2-0.4-0.3-0.7-0.5l-0.3-0.2l-0.2-0.1l-0.1-0.1l0,0l-0.2-0.2
			c0,0.1,0,0.2,0,0.3l0,0.1l0,0c0,0,0,0,0,0.1c0.2,0.2,0.4,0.4,0.6,0.6l0.4,0.3l0.4,0.3c0.2,0.2,0.4,0.3,0.6,0.5
			c0.5,0.3,1,0.6,1.5,0.9c2.3,1.2,5.5,2,8.8,1.7c1.7-0.1,3.4-0.5,4.9-1l1.6-0.6c0.7-0.3,1.3-0.4,1.8-0.4c-0.1,0.4-0.9,0.7-1.5,1
			c-0.3,0.1-0.7,0.3-0.9,0.5c-1.1,0.5-1.9,0.9-2.1,1.1c0.7-0.2,1.3-0.4,1.9-0.7l0.2-0.1l0.1,0l0,0l0.1-0.1l0.2-0.1l0.8-0.4
			c0.5-0.2,1.1-0.5,1.6-0.7c1.1-0.5,2.2-0.9,3.3-1.3c2.2-0.9,4.3-1.7,6.2-2.9c-0.4,0.3-1.7,0.5-1.6,0.4c3.1-2.3,23-7.4,11.9-3.4
			c-1.3,0.7-3.9,1.2-4.5,2.1c7.2-2.8,14-5.9,20.7-9.1c3.3-1.6,6.6-3.2,9.8-4.8l4.8-2.4l0.6-0.3c0.2-0.1,0.5-0.2,0.4-0.2l0.2-0.2
			c0.1-0.1,0.2-0.2,0.3-0.3l0.3-0.1l0.2,0l0.1,0l0.1,0l0.1,0c0,0,0,0,0.1,0l0.5,0l1,0l1.9,0c2.6,0,5.1,0,7.6,0
			c5-0.1,9.9-0.3,14.7-0.5c-2.8,0.6-5.9,0.8-8.7,1c-2.8,0.2-5.3,0.3-6.8,0.7c13.6,0,28.5-2.3,43.1-7.4c7.3-2.5,14.6-5.8,21.6-9.7
			c7-3.9,13.7-8.5,20-13.6c12.6-10.3,23.3-22.9,31.5-36.5c8.2-13.6,13.8-28.2,17.1-42.4c0,0,0.3-1.1,0.4-2.3
			c0.1-1.2,0.1-2.6-0.3-3.1c0.6,2.5-1.8,0.1-1.1,1.6c-1-2,1.5-3.8,1.1-2.9c0.8-1.8,1.1-5.1,1.1-8.9c0-3.8-0.3-8-0.3-11.6
			c0-3.9,0-8.1-0.1-11.9c-0.1-3.8-0.2-7.2-0.4-9.4c0.5,2.6,0.8,4.9,1.1,7.4c0.3,2.5,0.5,5.3,0.7,9.2c0.7-7.8,0-13.8-1.3-19.3
			c-1.3-5.5-3-10.7-5.2-17.2c-0.9-2.8-2.1-7.7-3.6-11.2c-0.7-1.7-2.9-4.1-3.6-7c-0.2-1,0.6-0.9,0.4-1.6c-0.6-1.7-3.3-5.9-6.1-9.8
			c-2.8-3.9-5.6-7.5-5.6-8.7c0-0.1,1.2,0.3,1.1,0.3c-1.3-2.3-3.3-2.4-3.6-5c-0.9,1.1-2.9-1.3-5.1-4.1c-2.2-2.9-4.7-6.3-6.1-7.6
			c-1.4-1.3-4.1-3.4-7.2-5.5c-3-2.1-6.4-4.2-8.7-6c-2.8-2.1-6-4.3-9.3-6.3c-3.3-2-6.7-3.9-10-5.4c-6.6-3.1-12.7-5-16.1-5.1
			c0.5,0.8,3.4,0.2,4.4,1.7c-2.2,0-6.3-1.4-4.8-2.9c-4.5-1.3-9.5-2.6-14.7-3.6c-5.2-1-10.5-1.7-15.7-2.1
			c-10.5-0.7-20.4,0.2-27.4,1.8c0.3-0.1-1.1,0.1-2.5,0.2c-1.4,0.1-2.9,0.3-3,0c-0.7,0.3,0.2,1.2-0.6,1.4c-0.9-0.5-3.4-0.3-5.9,0.4
			c-2.4,0.7-4.8,1.9-5.6,3.1c-0.3-0.6,0.6-0.7,0.1-1.4c-3.5,0.7-6,2-7.9,3.2c-2,1.2-3.5,2.4-5.3,2.9c1.7-0.1,1.8-1.7,1.2-1.6
			c-3.9,1.7-8.5,3.8-13.5,6.4C81.3,43.5,76,46.6,71,50c-5,3.5-9.9,7.3-14,11.2c-4.2,3.9-7.8,7.8-10.5,11.2c0.7,0.7,1.6-0.6,2.6-1.8
			c1-1.2,2-2.5,2.6-1.8c-1.3,2.4-2.8,3.2-4.3,4c-1.5,0.8-2.8,1.6-3.6,3.8c-0.1,0.2,1-0.1,0.9-0.3c0.3,1.1-1.6,3.9-3.8,6.8
			c-2.2,2.9-4.6,6-6,7.4c0.6,0.2,0.1,1.9-0.6,3.9c-0.7,2-1.7,4.3-2.3,5.6c-1.6,3.4-3.4,7.6-5,11.9c-1.6,4.2-2.8,8.4-3.5,11.3
			c-0.2,0.7-0.3,3.1-0.5,5.5c-0.2,2.4-0.4,4.9-1.2,5.7c-0.7,0.7-1.4-3.2,0.1-2c-1.6,0.5-1.2,1.4-0.6,2.6c0.6,1.1,1.3,2.4,0.3,3.9
			c-0.6,0.1,0.4-1.8-0.6-1.3c-0.1,2.1-0.2,2.2,0.8,2.1c-0.4,4.1-0.7,6.5-0.7,10c-0.8-1.1-1.4-0.4-1.6,0.7c-0.2,1.1,0,2.7,0.5,3.4
			c0.5-1,0.3-3.1,1.1-3.6c-0.3,3.1-0.3,4.9-0.2,6.5c0.1,1.7,0.2,3.2,0.3,6c-0.8,0-0.7-1.5-1.6-1.1c-0.3,1.5-0.1,4.5,1.2,4.4
			c0-1.8-0.4-2.7-0.9-3.6c0.8,0.7,1.2,1.3,1.5,2.3c0.7,2.5,1.1,5.8,1.5,9.2c0.4,3.4,0.9,7,1.7,9.9c0.7,2.5,3.1,5,2.3,7.8
			c-0.8-0.1,0-2-1.1-1.8c-0.4,2.1,0.3,2.3,1,2.4c0.8,0.1,1.7,0.2,1.9,2.1c0.1,0.7-1-0.2-0.3,1.4c0.4,0.9,0.6-0.2,1,0.5
			c0.6,0.9,1.1,2.6,1.6,4.3c0.6,1.8,1.2,3.7,1.9,5.1c0.7,1.6,3.3,5.3,5.2,8.3c1.9,3,3.2,5.3,0.7,4.7c0.9,1.8,4.8,6.3,2.2,1
			c2.8,3.1,6.1,7.2,5.7,9.3c1.2,0.4,3.5,2.2,3.1,3.8c-1.2-1.5-2.1-1.6-3.1-2.2c1.3,1.6,1.6,1.8,1.8,1.9c0.3,0.1,0.5,0.2,1.7,1.5
			c1-0.2-0.7-1.1,0.3-1.3c3.6,4.2,7.8,8.5,12.2,12.4c1.1,1,2.2,1.9,3.3,2.9l1.7,1.4c0.6,0.5,1.3,1,1.9,1.5c2.6,2,5,3.8,7.3,5.4
			l0.1,0.1c0,0,0.1,0.1,0,0.1l-0.1,0.3l-0.2,0.6l-0.3,1.2l-0.6,2.3l-1.2,4c-2.2,7.5-0.3,1.5-1-0.5c0.2,1.2-0.3,2-0.8,2.7
			c-0.5,0.7-1,1.1-0.9,1.8c1.8-1.5-2.5,7.5-0.6,6.7c-0.3-0.6,0.8-3.2,1.2-3.9c-1.5,8.7-3.8,13.5-5,22.5c0.3-0.7,0.5-1.6,1-1.9
			c-0.2,1.1-0.6,2.6-1,4.3l-0.1,0.3l0,0l0,0l0,0v0c0,0,0-0.2,0-0.1v0l0,0.1l0,0.2c0,0.1,0,0,0,0h0c0,0,0,0.1,0,0.1
			c0,0.1,0.1,0.3,0.2,0.4c0.2,0.2,0.4,0.3,0.7,0.2c0-0.2,0-0.4,0.1-0.5c0,0,0.1-0.1,0.1-0.1l0-0.1l0,0l0,0l0,0c0,0-0.1,0.3,0,0.1
			l0,0l0.1-0.2l0.1-0.4l0.3-0.8c0.7-2.2,1.4-4.5,2.2-6.9c1.5-4.9,3.1-10.1,4.9-14.8c-2.2,6.8-1.7,8.9-3.9,16.9
			c1.8-5.2,3.7-10.3,5.4-15.5l1.3-4l0.3-1l0.2-0.5l0.2-0.8l0.9-3l1.8-6.3l0.9-3.2l0.4-1.6l0.2-0.8l0.1-0.4c0-0.1,0-0.2,0-0.4
			l-5.7-3.9c-1.9-1.3-3.9-2.7-5.8-4.1l-2.3-1.7l-1.8-1.4c-1.2-0.9-2.4-1.9-3.6-2.9c0.3,0.3,0.3,0.6,0.4,0.7c-2.7-3-4.9-5.4-7.3-8.1
			c-2.4-2.7-5-5.6-8.2-10.1c-3.4-4.7-7-10.1-10.1-15.9c-3.1-5.7-5.7-11.8-7.3-17.7c-1.5-5.2-2.5-9.9-3.3-14.3
			c-0.8-4.4-1.4-8.5-1.8-12.5c-0.4-4-0.6-7.9-0.5-11.9c0.1-4,0.3-8.1,1-12.5c1-6.6,2.4-13.3,4.4-20c2-6.7,4.5-13.3,7.6-19.7
			c3.2-6.4,7-12.6,11.5-18.2c4.5-5.7,9.6-10.9,15.3-15.3c-2.5,2.6-5.4,5.7-8.3,8.8c-2.9,3.1-5.6,6.2-8,8.6c0.6,1-0.3,2.2-1.3,3.3
			c-1.1,1.1-2.3,2.2-2.7,2.8c-0.3,0.4,0.6,0.3,0.4,0.7c-1,2.9-3.2,5.6-5.1,8.4c-1.9,2.8-3.5,5.8-3.3,9.1c1.4-2.3,3.6-5.3,5.2-8.8
			c-1.3,1.8-2.7,5.4-3.7,8.7c-1.1,3.3-1.9,6.3-2.9,6.9c-0.5,0.3-1.2-2,0-2.8c0.7-0.4-0.2,2.6,0.7,0.3c0.7-1.6-1.1,0.1-0.5-1.4
			c1.8,0.2,1.6-2.1,0.6-2.6c-1,2.4-1.5,4-2.1,5.5c-0.6,1.5-1.1,2.7-2,4.3c1.2-0.4,0.6,1.2,0,2.4c-0.6,1.2-1.4,2-0.7-0.2
			c-0.5,1.4-0.5,3.2-0.5,4.6c-0.1,1.4-0.2,2.4-1.1,2c0,1.2-0.4,4.2-0.7,6.4c-0.3,2.1-0.6,3.4-0.7,1.1c0.2,2.7-0.2,5.8-0.5,9.1
			c-0.3,3.3-0.6,6.7-0.3,9.8c0.5-1-0.1-4.7,0.4-4.9c1.8-0.7-0.5-0.1,0-3c0,0,1.1-1.2,1.1-0.7c0.1-1.3-1-4.2-0.4-5.3
			c1-1.9,0,1.5,0.2-1.1c0.1-1.4,1.2-2.2,1.4-3.9c-0.3,1.8-0.5,1.2-0.4,0.3c0-0.9,0.3-2.3,0.8-2.1c0.6,0.2,0.5,1.5,0.3,2.6
			c-0.2,1.1-0.6,2.1-0.5,1.5c-0.3,2.7-0.7,5.9-0.9,9.4c-0.2,3.5-0.4,7.4-0.3,11.3c0.1,3.9,0.3,7.8,0.6,11.6
			c0.3,3.7,0.8,7.3,1.3,10.3c-0.6-3.4-1.1-6.3-1.5-9.4c-0.4-3.1-0.7-6.4-0.8-10.6c-0.9,1.1-0.5,1-1.3-0.3c-0.2,3-0.4,7.4,1,9.4
			c-0.3-0.8-1-3.1-0.1-3.4c0.2,0.9,0.5,2.6,0.7,4.3c0.2,1.8,0.4,3.6,0.2,4.6c-0.3-0.7-0.7-3.8-1.2-2.5c0.4,1.2,0.8,3.5,1.1,6.3
			c0,0.2,0.2,1.7,0.7,3.9c0.4,2.2,1.1,5,2,7.9c0.9,2.8,1.9,5.7,2.9,7.9c1,2.2,1.9,3.7,2.5,4c0.6,0.3-0.4,0,0,1.2
			c0.4,1.2,1.4,2.5,2.5,4c1.1,1.5,2.3,3,3.1,4.6c-2.9-6.6-5.2-11.3-7.2-15.9c-1-2.3-1.8-4.6-2.5-7.2c-0.7-2.6-1.2-5.4-1.4-8.6
			c0.5,2.8,1.5,5.6,2.3,8c0.8,2.4,1.5,4.4,1.4,5.7c0.5,1.2,0.2-1.5,0.7-0.3c-0.2,2.1,1.1,4.7,2.4,7c1.3,2.3,2.6,4.2,2.4,5.1
			c0.1-0.3-0.8-1-0.7-0.9c0.7,2.3,1.8,3.2,1.3,1.4c4.4,9,9.9,17.4,16.3,24.8c3.2,3.7,6.6,7.2,10.2,10.4c0.9,0.8,1.8,1.6,2.7,2.4
			l0.7,0.6l0.3,0.3l0.6,0.5c0.4,0.3,0.9,0.7,1.3,1l1.4,1c1.8,1.4,3.7,2.6,5.6,3.9l5.6,3.8c0,0.1,0,0.3-0.1,0.4l-0.1,0.5l-0.2,1
			l-0.5,1.9l-1,3.8l-1.9,7.5l-0.9,3.7l-0.6,2.2l-1.1,4.3l-4.3,16.6c2.3-3.8,2.9-12.6,5.3-16.1c-0.3,0.4,0,1.3,0,1.3
			c0.5-1.4,0.9-2.8,1.4-4.3l0.6-2.3l0.3-1.2l0.5-2.1l2.1-8.7l1.1-4.5l0.6-2.2l0.3-1.1c0.1-0.4,0.2-0.8,0.2-1.1
			c-2.8-1.9-5.5-3.8-8.3-5.8c-0.7-0.5-1.4-1-2-1.5c-0.7-0.5-1.3-1-2-1.5l-1-0.8L75,241l-0.5-0.4l-0.2-0.2l-0.1-0.1l-0.1-0.1
			l-0.4-0.4c0.1,0.1,0.3,0.1,0.4,0.2l0.1,0.1l0.1,0l0.1,0.1l0.4,0.3c0.6,0.4,1.2,0.8,1.9,1.3c1.4,1,2.8,2,4.4,3.1
			c3.1,2.1,6.2,4.4,9,6.1c0,0.5-0.2,1-0.3,1.5c-0.1,0.5-0.2,0.9-0.2,1.4c-0.1,0.9-0.2,1.6-0.2,2.3l0.7-2.7l0.3-1.3
			c0.1-0.4,0.2-0.9,0.3-1.3l-6.9-4.7c-2.3-1.6-4.6-3.1-6.7-4.7c-0.5-0.4-1-0.8-1.5-1.2l-0.7-0.6l-0.3-0.2l-0.2-0.1l-1.4-1.1
			c-0.9-0.7-1.7-1.5-2.5-2.2c-1.1,0.4,1.1,1.1,0.6,1.5c-2.3-0.5-2.3-1.1-2.2-1.8c0.1-0.8,0.1-1.8-1.9-3.3c1.3,2.8,0.8,2.7-0.2,1.6
			c-1-1.1-2.5-3.1-3.2-3.9c-0.3-0.4-1.4-1.1-2.7-2.2c-1.3-1.1-2.7-2.6-3.6-4.4c0.5,0.4,1.1,1.9,1.6,1.5c-0.4-1.2-1.4-1.2-1.2-2.3
			c2.2,3.4,5.4,7.5,9,9.4c-2.4-2.2-4.3-4.5-6.1-6.7c-1.8-2.2-3.4-4.3-5.2-6c-0.7,0.6,1.3,1,0.7,1.3c-0.3,0.3-0.7-0.7-1.1-0.5
			c0.1,1.3,1.3,0.4,2,1.7c-0.9,0.5-2.2-0.7-3.3-2.1c-1-1.4-1.8-3.1-1.5-3.4c0.1-0.1,1.5,1.1,0.4-0.7c1.2,1,1.2,2.6,2.5,2.6
			c-2-2.7-3.1-4.6-3.4-2c-3.7-6.1-8.2-13.6-11.7-22c-3.6-8.4-6.3-17.8-7.1-26.7c0.4,1.4,0.6,3.8,1,6c0.3,2.3,0.8,4.4,1.4,5.4
			c-1.6-2.4,0.7-1.1,0.7-0.5c0.2-1.7-1.2-1.9-1.3-4.6c0.7,0.4-0.3,1.2,0.7,1c-0.3-3.7-2.1-7.8-2.6-11.7c-0.2-1.7,0.9-3.6,0.1-6.2
			c0.5,1.7-1.3-2.8-1,0.8c-0.2-8.2,0.1-15.7,0.9-22.6c0.8-6.9,2.2-13.3,4.4-19c1.3-3.3,2.1-5.3,2.8-6.9c0.7-1.6,1.3-2.8,2.5-4.4
			c-0.2,0.4-0.4,1-0.7,0.9c1.2-2.4,1.3-3.7,2.1-4.3c0.4,1.1-1.4,2.1-0.5,2.6c0.1-0.9,1.1-2.5,2-4C46.4,98.4,47.1,97,46.4,96.6z
			 M36.5,113.3c-1.3,4.5-2.5,9.6-4,15.6c-1-1.3-0.5-3.5,0.2-5.7c0.7-2.3,1.7-4.7,1.6-6.6c0.3,1.4,0.6,0.7,1-0.4
			C35.6,115,36.1,113.4,36.5,113.3z M62.7,71.1c-0.7-0.5-0.3-1.4,0.1-2c0.5-0.5,1.1-0.7,0.8,0.3c0.7-0.9,1-2.6,2.5-3.4
			c0.5,0.3-0.1,0.7-0.5,1.2c0.4-0.4,1.3-1.4,2.4-2.6c1.1-1.2,2.4-2.5,3.8-3.6c1.8-1.5,4.2-2.9,6.4-4c2.2-1.1,4.2-2.1,5.5-2.9
			c0,0,1.9-1.6,3.8-2.8c1.9-1.2,3.7-2.1,3.2-1.1c-0.4,0.9-2.7,1.1-3.1,1.4c-2.3,1.4-1.2,2.1-2.9,3.2c-0.6,0.4-2,0.7-3.2,1
			c-1.3,0.3-2.4,0.7-2.6,1.2c-0.2,0.7,0.5,0.3,1.1-0.2c0.6-0.4,1.1-0.9,0.5-0.3c-2.6,2.6-5.1,4.3-8,6.3
			C69.4,64.8,66.2,67.1,62.7,71.1z M92.1,49.7c3.7-3.1,10-6.2,17-8.7c3.5-1.2,7.2-2.3,10.7-3.2c3.6-1,7-1.8,10.1-2.6
			c-6.4,2-12.6,3.9-18.9,6C104.8,43.4,98.5,46,92.1,49.7z M159.4,38.3c-0.2-0.7,1.7,0.4,1.6-0.3c2.7,0.4,4.8,0.8,7,1.2
			c2.1,0.4,4.2,0.8,6.9,1.5c5.4,1.7-1.3,0-4.2-0.6c-4-0.8-7.3-1.8-10.1-1.7L159.4,38.3z M196.8,42.1c-1.9-0.4-3.4,0.5-0.9,1.9
			c-1.8-0.4-3.9-1.3-6-2.1c-0.1-0.6,0.6-0.2,1.5,0.2c0.9,0.4,2,0.9,2.5,0.4c-0.4,0.4-3.6-2.2-2.7-1.8c-0.4-0.1-3.9-1.3-7.8-2.2
			c-3.9-1-8.1-1.7-9.6-2.1c-2-0.5-4.6-1.1-7-1.7c-2.4-0.6-4.6-1.3-5.9-2c-1.3,0.5-2.7,0.3-4.4,0.2c-1.8-0.2-4-0.4-6.7,0
			c-1.2,0.2-3.4,0.2-5.8,0.3c-2.4,0.1-5.1,0.3-7.1,0.5c-7.5,0.7-16.5,2.7-25.1,5.8c-8.7,3-17,7.1-24.1,10.6c-6,3-10.7,6.7-15.7,10.3
			c0.1-0.1-1.1,0.7-2.4,1.5c-1.3,0.8-2.6,1.7-2.5,1.5c0.1-0.7,3.8-3.9,7.2-6.4c4.2-3.1,10.1-6.9,16-10c5.8-3.1,11.6-5.5,14.9-6.9
			c7-2.9,15.3-5.4,23.4-6.8c8.1-1.5,16-1.8,22-1.5c2.9,0.2,8.8-0.2,15.5,1.1c4,0.8,9.1,1.6,13.4,2.7c4.3,1.1,7.9,2.3,9,3.2
			c-0.2-0.1-0.6,0.6-0.3,0.7c0.2,0.1,1.7,0.3,3.4,0.6C193.3,40.8,195.4,41.4,196.8,42.1z M25.4,155.2c-0.3,1.3,0,0.9,0.1,1.9
			c0.1,2.8-0.2,3.2-0.4,2.4C24.8,158.7,24.7,156.8,25.4,155.2z M40.5,210.5c1.1,1.9,2.2,3.8,3.4,5.7c-0.7-0.4-1.7-1.4-2.4-2.6
			C40.7,212.4,40.2,211.2,40.5,210.5z M48,223.6c-1.4-2.6-3.2-4.5-4.4-6.9C45.2,218.8,47.9,221.6,48,223.6z M231.1,72
			c1.7,2,3.6,3.8,5.3,5.6c1.7,1.8,3.4,3.7,4.7,5.9c0.4,0.7-1.1-1.3-2.3-2.7c-0.7-0.9-2.4-2.6-4-4.3C233.2,74.8,231.6,73.1,231.1,72z
			 M164.2,34.6c-2.1,0.4-6,0.1-10.4-0.2c-4.3-0.3-9-0.6-12.7-0.6c2.9-0.7,6.9-0.7,11-0.3C156.3,33.9,160.6,34.5,164.2,34.6z
			 M48.9,223.9c1.1,2,2.4,2.9,3.4,4.7c-0.6-0.2-1.5-1-2.2-2C49.4,225.7,48.9,224.6,48.9,223.9z M55.4,232.2c0.6,1,2,2.5,3.6,4.1
			c1.6,1.6,3.3,3.3,4.6,4.8c-1.2-1.1-2.9-2.6-4.5-4.1C57.5,235.4,56,233.8,55.4,232.2z M180.6,38.7c2.5,0.5,5.3,1.2,7.6,2.2
			c0.2,0.1-1-0.1-2.6-0.5C184,39.9,182,39.4,180.6,38.7z M196,42.9c1.9-0.2,3.9,0.5,5.8,1.6c1.9,1,3.9,2.2,5.9,3
			c-0.1,0.9-1-0.1-1.7-0.4c1,1.2,1.9,1.6,2.8,1.9c0.9,0.3,1.9,0.6,3,1.7c-1.8-0.5-4.4-1.8-7.2-3.2C201.8,46.1,198.8,44.5,196,42.9z
			 M90.6,40.3c-2.5,0.7-5.1,2.7-7,3.3c0.4-0.5,1.8-1.4,3.2-2.1C88.2,40.8,89.8,40.2,90.6,40.3z M69.4,52.4c0.5-1.1,3.1-2.4,4.5-3.5
			C74.3,49.8,71.4,51.3,69.4,52.4z M64.2,56.5c0.9-1.7,2.3-2,4.3-3.8C68.2,53.7,65.5,55.9,64.2,56.5z M270,139.4
			c-1.1-1.4-1.5-3.5-1.8-5.4c-0.3-1.9-0.6-3.6-1.4-4.2c0.4-0.4,0.1-1.9-0.3-3.5c-0.5-1.5-1.1-3.1-1.2-3.4
			c-1.8-6.6-4.1-13.8-7.6-20.8c3,4.7,5.6,10.9,7.6,17.5C267.3,126.3,268.7,133.2,270,139.4z M201.9,263.5c-1.5,1.7-4.8,3.7-8.5,5.4
			c-3.7,1.7-7.7,3.1-10.3,4.2c2.9-1.8,6-3.2,9.2-4.6C195.5,267.1,198.8,265.6,201.9,263.5z M270.2,144.8c-0.2-0.9-0.4,0.5-0.8-0.4
			c0.1-0.5,0.4-0.7,0.4-1.3c0.6,0.3,0.8,2.2,0.9,4.1c0.1,1.9-0.1,3.8,0,4.2C270.3,150.1,269.9,145.7,270.2,144.8z M181.1,273.5
			c-1.8,1.6-4.9,2.3-8.7,2.9C175.2,275.3,178.3,274.2,181.1,273.5z M270.7,160.6c-1-2.1,0.1-4.5-0.3-6.3
			C271.5,155.8,270.4,158.1,270.7,160.6z M266.1,188.2l-0.5-0.1c0.1-0.4,0.4-0.2,0.6-0.3c0.1-1.8,0.1-2,0.7-4.6
			c0.3,0.1,0.5,0,0.6-0.3C266.6,184.6,267.4,186.1,266.1,188.2z M260.3,204.8c-1,4.5-3,6.7-4.6,10.4c0.2-1.3,1.2-3.5,2.3-5.6
			C259,207.5,260,205.5,260.3,204.8z M145.2,25.1c2.4-0.6,5.2-0.6,8-0.4c2.8,0.2,5.6,0.7,8,0.8c-2.8,0.1-5.2-0.1-7.7-0.3
			C150.9,25,148.3,24.8,145.2,25.1z M152.3,280.7c-0.8,0.5-2.4,0.7-3.8,0.8c-1.5,0.1-2.9,0.1-3.3,0
			C147.5,280.8,148.8,281.2,152.3,280.7z M197.4,35c1.9,0.6,2.8,1.2,5,2.4C200.1,36.8,198.5,36.3,197.4,35z M213.4,43.7
			c1.6-1.3,2.4,1.1,4.8,2c-0.1,0.2-0.3,0.1-0.5,0C216.1,45.2,215.9,45.1,213.4,43.7z M213.1,43.5c-2.3-1.8-4.3-2.8-8.4-4.9
			c1.2,0.1,3.5,0.8,5.5,1.9C212.1,41.5,213.5,42.7,213.1,43.5z M229.2,53.9c-0.6,0.3-1.9-0.4-3.2-1.3c-1.3-0.9-2.5-2.1-2.7-2.9
			c1.6,0.9,4.8,2.8,7.6,5c2.8,2.2,5.3,4.8,6,6.7c-0.9-1.6-2.9-3-4.6-4.2C230.6,56,229.1,55,229.2,53.9z M220.7,47.5
			c-0.9,1.4,2.9-0.1,1.9,2.4c-1.2-1-2.9-1.9-2.8-2.7C220.2,46.9,220.3,47.8,220.7,47.5z M272.4,173.6c0,2.3-0.7,5.9-1.2,7.6
			c-0.2,0.8-0.4,1.2-0.4,0.7c0.1-0.5,0.4-1.9,0.9-4.5C271.6,176,272.2,175.5,272.4,173.6z M237.2,61.8c0.5-0.2,1.6,0.4,2.7,1.1
			c1.1,0.7,2,1.6,2.3,1.9c2.6,2.6,5.3,5.8,8,9.4c2.7,3.6,5.4,7.6,7.8,11.9c4.9,8.5,8.9,18,11.6,26.5c-3.7-8.2-7.8-17.8-13.2-26.9
			c-2.7-4.6-5.7-9-8.9-13.1C244.3,68.5,240.8,64.8,237.2,61.8z M271.8,119.1c-1.5,0.3-1.6-3.6-2.9-6.4c1.1,1.2,2.3,3.6,3.3,6.3
			c0.9,2.7,1.6,5.6,1.7,7.6c-0.8-1.1-1.5-2.8-1.8-4.3C271.6,120.8,271.5,119.5,271.8,119.1z M246.6,238.1c0.6,0.7-0.8,0.9-0.4,1.3
			c1.3-2.2,3.2-3.7,2.7-4.6c3.7-4.1,6.9-8.2,9.6-12.7c2.7-4.5,4.9-9.2,6.4-14.3c1,0-0.2,1.4-0.5,2.2c2-4.3,3.8-9.2,5.4-14.3
			c1.6-5.1,2.9-10.4,4.2-15.7c-0.8,8.1-3.1,16.4-6.1,23.7c-2.9,7.4-6.3,13.9-8.9,18.9c0.7-1.4-0.1,0.1-1.2,1.9
			c-1,1.8-2.4,3.7-2.4,3.2c-0.1-0.8,0.8-1.8,1.6-2.7c0.8-0.9,1.5-1.8,1.3-2.3c0.2,0.4-2.4,4.6-5.5,8.5c-3,4-6.4,7.9-6.7,8.8
			C245.5,239.7,245.6,239.1,246.6,238.1z M245.2,239.8c-0.6,2-2,3.9-3.9,6c-1.9,2.1-4.3,4.3-6.8,6.9c-0.8,0.9-3,2.8-4.5,4
			c-1.6,1.2-2.6,1.9-1,0.4c4.1-3.6,6.9-6.7,9.4-9.5C240.8,244.8,242.8,242.3,245.2,239.8z M89.9,302.6c-1.2,1.4-4.1,1.6-6.3,3.1
			C84.2,304.4,88,303,89.9,302.6z M82,311.7c1.4-0.5,3.3-1.6,4.3-1.5C85.6,311.1,82.8,312.6,82,311.7z"/>
	</g>
	<g>
		<path class="st4" d="M86.5,265.9c-0.1,1.1-0.3,2.3-0.6,3.5c-0.1,0.6-0.3,1.3-0.5,1.9l-0.2,0.6l-0.2,0.5c-0.4,1.4-1,2.9-1.3,4.4
			c0-1.6,0.4-3,0.8-4.4l0.3-1l0.5-1.8C85.9,268.5,86.2,267.2,86.5,265.9z"/>
	</g>
	<g>
		<path class="st4" d="M122.8,41c-6.4,2.1-13.3,4.6-20.1,7.6c-6.8,3.1-13.6,6.7-20,10.9c-6.4,4.2-12.4,9-17.6,14
			c-5.3,5-9.8,10.3-13.5,15.4c5.4-8.7,12.5-16.1,19.9-22c7.5-6,15.2-10.6,22.4-14.6c1.6-0.9,6-3.2,11.4-5.5
			C110.6,44.6,117.2,42.4,122.8,41z"/>
	</g>
	<g>
		<path class="st4" d="M77.3,284.2c0.7-2.8,1.4-6,2.1-9.2l1.1-4.8l1.7-7c-0.5,2.2,0,0.3,0.5-1.5c0.5-1.8,1-3.4,0.2-0.3
			c0.2-0.7,0.5-1.8,0.9-3.3l0.7-2.4l0.4-1.3l0.2-0.7l0.1-0.3l0-0.3c-2.8-2-6.1-4.4-9.2-6.7c-0.8-0.6-1.5-1.2-2.2-1.7l-1.9-1.5
			c-0.7-0.6-1.4-1.1-1.9-1.6c-0.8-0.6-2.6-1.9-0.8-2c1.2-0.1,1.2,2,0.9,1.8l2,1.6l1.9,1.5c0.7,0.5,1.4,1,2.2,1.6
			c3,2.1,6.4,4.3,9.9,6.7c0,0.3-0.1,0.7-0.2,1.1l-0.3,1.2l-0.6,2.3l-1.2,4.8l-1.3,4.9l-0.7,2.5l-0.3,1.2l-0.2,0.8
			C80.1,275.6,78.7,279.9,77.3,284.2z"/>
	</g>
	<g>
		<path class="st4" d="M250.2,100.3c0.9-0.3,2.3,2,3.5,5c1.2,2.9,2.3,6.4,3.2,8.4c-1.3-2-2.3-4.5-3.2-6.9
			C252.7,104.4,251.6,102,250.2,100.3z"/>
	</g>
	<g>
		<path class="st4" d="M259,120.4c1.2,2.4,2.2,5.3,2.9,8.5c0.8,3.1,1.3,6.4,2,9.5c-0.8-2.1-1.4-4.7-2-7.8
			C261.2,127.5,260.3,124,259,120.4z"/>
	</g>
	<g>
		<path class="st4" d="M253.3,208.7c-1.5,2.6-3.3,6.1-4.3,8.2c0.3-1.3,1.3-3.3,2.1-5C252,210.2,252.9,208.8,253.3,208.7z"/>
	</g>
	<g>
		<path class="st4" d="M29,199.7c1.5,1.3,2.2,2.4,3.2,4.8c-0.8-0.9-2.3-2.9-3.3-4.7c-0.9-1.7-1.3-3,0-2.3c-1.1-0.4-0.5,0.3,0.1,1
			C29.6,199.2,30.2,199.9,29,199.7z"/>
	</g>
	<g>
		<path class="st4" d="M42.4,224.3c0-0.4-0.1-0.8-0.3-1.3c1.5,1,3.1,3.9,2,4.6C44.8,226.9,43.4,225.3,42.4,224.3
			C41.4,223.1,40.7,222.6,42.4,224.3z"/>
	</g>
	<g>
		<path class="st4" d="M28,104.5c0.7-2.2,0.7-2.2,1.8-4.1c0,0.4-0.2,1.7-0.5,2.8C29.1,104.2,28.7,105.1,28,104.5z"/>
	</g>
	<g>
		<path class="st4" d="M39,84.8c-1.1-1.2-0.1-2.4,1-3.6c1.1-1.2,2.5-2.2,2.1-3.2c0.2,1.3-0.4,2-1.2,3C40.1,81.9,39.2,83,39,84.8z"/>
	</g>
	<g>
		<path class="st4" d="M36.5,125.6c-0.3-0.7-0.9-4.1,0.8-3.9C37.6,122.9,36.2,124.2,36.5,125.6z"/>
	</g>
	<g>
		<path class="st4" d="M259.1,193.3c0.5-3.5,1.4-5.4,1.8-5.5C261.3,187.6,261.1,189.4,259.1,193.3z"/>
	</g>
	<g>
		<path class="st4" d="M36.2,89.3c-0.5-2,0.6-3.4,1.2-3.6C38.1,85.5,38.3,86.5,36.2,89.3z"/>
	</g>
</g>
<g>
	<g>
		<path class="st5" d="M173.1,54.3c0.8-0.2,1.3-0.9,2.9-0.1c0.3-0.6-1.5-0.6-2.1-1c1.5-0.5,4.4,1,6.4,1.2
			C178,54.5,176,55,173.1,54.3z"/>
	</g>
	<g>
		<path class="st5" d="M171.7,52.9c-1.7-0.5-3.5-1-5.3-1.4C168.1,51.3,171.2,50.9,171.7,52.9z"/>
	</g>
	<g>
		<path class="st5" d="M242.9,111.1c4.2,10.8,7.6,22.7,9,35.1c0.7,6.2,0.9,12.5,0.5,18.7c-0.4,6.2-1.3,12.4-2.9,18.3
			c-1.3,5.1-3.1,9.7-5.1,14c-2.1,4.3-4.4,8.4-7.1,12.4c-3.7,5.7-8,11.3-12.9,16.6c-4.9,5.3-10.3,10.3-16.1,14.6
			c-5.8,4.4-11.9,8.1-18.1,11.1c-6.2,3-12.4,5.4-18.3,7c-2.6,0.7-5.9,1.7-9.6,2.5c-3.7,0.9-7.9,1.6-12.2,2.1
			c-2.4,0.3-5.2,0.3-8.2,0.3c-1.5,0-3-0.1-4.6-0.2l-2.4-0.1l-0.6,0l-0.9-0.1l-1.8-0.2l-3.7-0.4c-1.9,1.1-3.7,2.4-5.6,3.5l-4.1,2.6
			l-8.3,5.2L92.6,285l-14.4,8.9c-3.6,2.2-7.2,4.5-10.9,7l-2.4,1.6l-1.2,0.8c-0.2,0.1-0.4,0.3-0.6,0.4c-0.2,0.1-0.5,0.2-0.7,0.2
			c-1,0.1-1.9-0.3-2.4-1c-0.3-0.4-0.4-0.8-0.4-1.2c-0.1-0.4,0.2-0.8,0.3-1.2l4.1-9.3c1.4-3.2,2.9-6.5,4.4-9.8l1.2-2.5l1.7-3.5
			c1.1-2.3,2.2-4.6,3.4-6.8c0.2-0.4,0.6-2,0.8-2.4l1.1-1.8l0.5-0.9l0.7-1.1l2.8-4.6l2.8-4.7l1.4-2.4l0.7-1.2l0.4-0.6l0.1-0.1
			c0,0,0-0.1,0-0.1l0-0.1l0-0.2l-5.2-4.2c-1.8-1.4-3.5-2.9-5.2-4.5c-2-1.8-2.6-2.6-3.7-3.7c-1-1.1-2-2.1-2.9-3.2
			c-3.8-4.2-7.4-8.4-11.3-12.6c-3.4-3.7-6.3-7.5-9-11.6c-2.7-4.1-5.1-8.4-7.5-13.1c-0.9-1.8-2.2-4.3-3.3-6.4c-1.1-2.1-1.9-3.8-2-4
			c-2.6-5.5-4.2-12.3-4.9-19.7c-0.7-7.3-0.3-15.2,0.6-22.9c1.3-10.8,4.2-20.8,8.1-29.9c4-9.1,8.9-17.3,14.7-24.7
			c5.7-7.4,12.1-14,19.2-20c7-6,14.7-11.3,23-16c-0.8-1.5-2.7,1.4-3.2,0.1c0.9-0.9,2.7-1.9,4.5-3c1.8-1.1,3.7-2.3,5-3.7
			C96.6,47,90.6,49.5,85,52.6c-5.6,3.1-10.9,6.9-15.8,11c-4.9,4.1-9.5,8.7-13.8,13.4C51.1,81.8,47,86.8,43,91.9
			c4.5-7.6,10.9-14.7,17.8-21.4c1.9-1.8,5-4.5,7.6-6.9c2.6-2.4,4.7-4.5,4.4-5.7c1.1,0.5,2.7-0.3,4.3-1.4c1.6-1.1,3.2-2.6,4.2-3.5
			c-0.4-0.3-1.5,0.6-2.7,1.5c-1.2,1-2.4,1.9-3.2,1.6c-1-0.5,0.3-1.6,1.9-2.5c1.5-0.9,3.2-1.5,2.5-1.1c1.1-0.7,2.7-2.4,5-3.7
			c4.2-2.2,8.9-3.4,10.5-4.5c1-0.7-0.4-0.9,0-1.3c0.8-0.9,3.3-1.6,5.8-2.3c2.5-0.7,5.1-1.5,6.2-2.7c-0.6-1-5,0.4-9.2,2.3
			c-4.3,1.8-8.5,3.9-9.6,3.2c-0.4-0.3,0.5-1.1,1.5-1.9c1-0.8,2.1-1.7,1.9-2.1c-0.3-0.7-4.9,0.6-9.3,2.5c-4.4,1.9-8.6,4.3-8.8,4.3
			c-3.8,2-8.1,4.9-12,7.9c-9.2,7.2-17.7,15.8-25,25.8c-7.3,10-13.2,21.2-17.4,33.4c-4.2,12.1-6.5,25.1-6.7,38.2
			c-0.2,13.1,1.8,26.3,5.8,38.6c2.3,7.1,5.2,13.3,8.5,18.9c3.3,5.6,6.8,10.6,10.6,15.3c3.8,4.7,7.8,9.2,12.2,13.7
			c2.2,2.3,4.4,4.6,6.8,6.9c1.2,1.2,2.4,2.3,3.6,3.5l1.9,1.8l0.9,0.9l0.2,0.3c0.7,0.9,1.1,1.6,1.4,2.2c0,0,0.1,0,0,0.1l-0.1,0.1
			l-0.2,0.2l-0.3,0.4c-0.2,0.2-0.4,0.4-0.6,0.6c-0.4,0.4-0.7,0.7-1,0.9l-0.1,0.1l-0.4,0.6l-0.7,1.2c-0.5,0.8-0.9,1.6-1.4,2.4
			c-0.9,1.6-1.7,3.2-2.5,4.9l-2.3,4.8l-0.6,1.2c0,0.1-0.1,0.2-0.1,0.3l-0.1,0.4l-0.3,0.9l-1.1,3.6l-4.5,14.4c-2.5,8-5,15.9-7.6,24
			l-1,3l-0.5,1.5l-0.2,0.8c-0.1,0.1,0,0.2,0,0.3c0,0.1,0.1,0.2,0.1,0.2c0.3,0.6,0.8,1.4,1.4,2.2c0.6,0.8,1.4,1.5,2.2,2.1
			c0.8,0.6,1.6,1,2.3,1.3c0.2,0.1,0.3,0.1,0.5,0.2l0.1,0c0,0,0.1,0,0.1,0l0.4-0.2l1.5-0.6l5.9-2.6l23.8-10.4l12.1-5.3l3-1.3l2.1-1.3
			l4.2-2.6c6.4-4,12.5-8,18.4-12l8.8-5.9l4.4-2.9l0.3-0.2l0.1-0.1l0.1-0.1l0.3-0.2c0.2-0.1,0.4-0.3,0.6-0.4l0.6,0l0.3,0l0.8,0.1
			c9.4,0.7,18.6,0.2,27.6-1.2c9-1.4,17.7-3.7,26.3-7c8.5-3.3,16.8-7.5,24.8-12.8c7.9-5.3,15.6-11.6,22.6-19.1
			c1.8-1.9,3.8-4.4,5.8-7.1c2-2.7,4-5.7,5.9-8.7c3.8-6,7-11.9,9.7-15.2c0.1-0.2,0,1.3,0.1,1.3c3.7-5.9,6.8-12.8,9.1-20.4
			c2.3-7.5,3.6-15.7,4-24c0.4-8.3-0.1-16.8-1.5-25c-1.3-8.2-3.5-16.1-6-23.6c-2.8-8.1-6.2-15.7-10.2-22.7c-3.9-7-8.4-13.5-13.4-19.5
			c-5-6-10.6-11.5-16.8-16.4c-6.2-4.9-13-9.3-20.4-12.9c-4.7-2.3-9.6-4.1-14.4-5.6c-4.8-1.5-9.6-2.5-14.1-3.4
			c-9.1-1.7-17.3-2.3-23.7-3.6c2.2,0.5,3.5,0,4.1,0.9c-2.6-0.3-4.7-0.9-6.8-1.3c-2.1-0.4-4.3-0.6-7.2,0c-5,0.9-10.3,2.2-14.2,3.5
			c-1.9,0.6-4.5,1.3-6.6,2.1c-2.1,0.8-3.7,1.7-3.8,2.6c0.4-0.8,3.4-1.4,6-1.4c2.6,0,4.8,0.5,3.7,1.5c-1,0.9-3,1-5.1,1.4
			c-2.1,0.3-4.3,0.8-5.6,2.3c2.7-0.6,6.5-2,8.6-1.7c-1.3,0.7-3.1,1.5-4.6,2.2c-1.5,0.7-2.9,1.2-3.5,1.3c1.7-0.1,2.5-0.3,3-0.5
			c0.5-0.2,0.9-0.3,1.8-0.1c-0.7,0.6-2.3,0.9-3.9,1.3c-1.6,0.3-3.2,0.7-3.8,1.4c3.6,0.2,7.3,0,11.3-0.1c4.1-0.1,8.5,0,13.2,0.8
			c4.7,0.8,9.1,1,12.9,1.2c3.8,0.2,7,0.4,8.9,1.1c1.8,0.6,3.6,0.2,5,0.1c1.4-0.1,2.5,0,2.8,1.3c0.5-1.8-2.8-2.5-6.6-3
			c-3.8-0.5-8-0.7-9.4-2.4c0.8-0.3,2.7,0.1,3.2-0.4c-1.4-0.3-1.9-0.1-2.3-0.5c4.5-0.3,8.3,0.2,11.6,0.9c3.3,0.7,6.2,1.5,9,1.9
			c0.4-0.6-0.4-0.9-1.4-1c-1-0.2-2-0.3-2-0.8c1.7,0.4,3.7,0.6,5.5,1c1.8,0.4,3.5,0.9,4.4,1.8c-1.2-0.1-3.7-1.8-3.7-0.5
			c2.6,1.4,3.2,0.7,5.9,1.6c0.9-1.3-3.3-1.3-2.1-2.7c6.6,2.3,13.4,5.3,20.1,9.1c6.7,3.8,13.2,8.5,19.1,13.9
			c5.9,5.4,11.3,11.5,15.8,18C236.6,97.2,240.2,104.1,242.9,111.1z M49.8,221.2c-4.3-4.6-7.8-9.4-11.1-14.5
			c-3.2-5.2-6.1-10.8-8.7-17.2c2.4,4.5,5.3,10.2,8.8,15.9C42.3,211.1,46.2,216.7,49.8,221.2z M213.1,244.4c1.1-0.9,2.5-2.1,3.8-3.2
			l3.6-3c0.9-0.8,1.5-1.2,1.3-0.9c-0.2,0.3-1,1.2-3,3.1C217.4,241.9,214.8,244.5,213.1,244.4z M223.1,236.2c0.7-0.8,2.2-2.5,4-4.5
			c1.8-1.9,3.7-4.1,5.4-5.9c-0.9,1.5-2.5,3.6-4.2,5.6C226.5,233.3,224.5,235.1,223.1,236.2z M203.5,251.5c-1.2,1.6-3.8,3.1-6.6,4.5
			c-2.8,1.4-5.7,2.7-7.6,4c1.8-1.5,4.5-2.8,7.2-4.3C199.2,254.4,201.9,252.9,203.5,251.5z M196.5,51.2c4.4,0.8,9.9,3.3,15.3,6.8
			c5.4,3.4,10.6,7.9,14.9,12c3.5,3.3,6.9,7.1,10.1,11.2c3.2,4.1,6.1,8.4,8.7,12.9c2.6,4.5,4.8,9,6.5,13.5c1.8,4.5,3.2,8.8,4.2,12.9
			c-2.6-8.3-6-15.7-9.8-22.5c-3.9-6.8-8.3-13-13.2-18.6c-4.9-5.7-10.3-10.8-16.4-15.5C210.7,59.1,204,54.9,196.5,51.2z M254.8,189.4
			c0.5-4.3,1.5-8.8,2.4-13.7c0.9-4.9,1.6-10.2,1.5-15.9c0.2-2.7,0.3-3.8,0.4-3.7c0.1,0.1,0.1,1.2,0.1,2.9c0,1.6-0.1,3.8-0.3,5.8
			c-0.2,2-0.4,3.9-0.5,5.1c-0.4,4-0.8,7.2-1.2,10.3C256.6,183.2,256,186.1,254.8,189.4z M48.1,311.7l11-24
			C56.6,294.6,50.4,307.3,48.1,311.7z M30.2,188.9c-2.6-6.4-4.5-13.3-5.6-20.3c-1.1-7.1-1.3-14.4-0.8-21.5
			c0.5-7.2,1.8-14.2,3.5-20.9c1.8-6.7,4.1-13,6.6-18.9c-2.1,6-4.1,12.3-5.7,19c-1.6,6.7-2.8,13.6-3.3,20.8
			c-0.5,7.1-0.4,14.4,0.4,21.5C26.2,175.6,27.8,182.5,30.2,188.9z M65.6,242.9l2.7,2.5l2.3,2.1l4.1,3.7l0.1,0.1
			c0,0.1-0.1,0.1-0.1,0.2l-0.3,0.4l-0.5,0.8l-1,1.5c-0.7,1-1.3,1.9-2,2.8c-0.6,0.9-1.3,1.6-1.9,2.4c-0.8,1-1.6,2.1-2.3,3.1
			c-0.5,0.6-0.3-0.1-0.1-0.6l1.9-2.9c0.5-0.7,1-1.4,1.6-2.2l1.8-2.6l1-1.4l0.5-0.7l0.3-0.4c0-0.1,0.1-0.1,0.1-0.2l-0.1-0.1
			c-1.3-1.2-2.6-2.6-3.9-4c-0.7-0.7-1.3-1.4-1.9-2.2C66.9,244.5,66.2,243.7,65.6,242.9z M216.4,247c-1.6,2.9-4.5,4.3-7.1,6
			c1.2-1.8,2.1-2.4,3.2-3C213.5,249.3,214.8,248.7,216.4,247z M259.4,184.8c0,2.2-0.9,5.1-2.1,8c-1.3,3-2.9,6-4.3,8.5
			c0.6,0.4,1.1,0,1.5-1.1c-3.7,8.4-8.3,15.7-13.6,22.4c-5.3,6.7-11.1,12.8-17.5,18.9c8.2-8.3,15-17.2,20.9-26.6
			C250.1,205.6,255.1,195.7,259.4,184.8z M29.3,194.1c2.7,2.2,3.1,3.8,2.7,4.1C31.5,198.6,30.1,197.5,29.3,194.1z M217,246.9
			c1.5-1.8,3.7-3.6,5.9-5c-0.4,0.7-1.5,1.8-2.7,2.8C219.1,245.7,217.7,246.6,217,246.9z M192.1,262.5c-1.4,1.5-5.5,2.5-8,3.6
			c0.4-1,1.8-1.5,3.4-2C189.1,263.7,190.9,263.2,192.1,262.5z M98.4,293.6c-3,1.9-6,3.8-8.8,5.5c-0.4,0.2-0.7,0.4-1.1,0.7l-1.2,0.7
			l-2.5,1.3l-4.9,2.5c-6.4,3.4-12.5,6.6-18.7,9.9c6.5-3.8,13-7.5,19.6-10.9l4.9-2.6l2.4-1.3c0.4-0.2,0.7-0.4,1.1-0.6l1.1-0.6
			C93,296.6,95.7,295.1,98.4,293.6z M156.9,273.3c-2.6,0.8-6.8,1.1-10.8,1.1c-4.1,0-8-0.3-10.6-0.5c2.7-0.4,6.1-0.3,9.8-0.3
			C149.1,273.7,153.1,273.7,156.9,273.3z"/>
	</g>
	<g>
		<path class="st5" d="M181.7,56c1.2-0.8,2.8-0.3,4.3,0.4c1.5,0.7,3,1.7,4.3,1.7C187.5,58.3,185.1,57.6,181.7,56z"/>
	</g>
</g>
</svg>
